<svg id="svg" xmlns="http://www.w3.org/2000/svg" xmlns:xlink="http://www.w3.org/1999/xlink" version="1.1" width="703.75" height="440" preserveAspectRatio="xMidYMid meet" buffered-rendering="static" style="background: rgb(255, 255, 255);" viewBox="44.01 42.07 532.99 354.93"><g><path d="M 480.5 42.07621131738281 C 478.3 42.128843110877916 475.375 42.5138888426132 474 42.93186849901677 C 472.625 43.34984815542034 470.15 44.39341311076719 468.5 45.2509017331209 C 466.85 46.1083903554746 464.5154304870343 47.865228265576185 463.3120677489651 49.154985977791085 C 462.10870501089596 50.444743690005986 460.20608791111687 53.525 459.084029749456 56 C 457.5748243204718 59.32895705798985 457.04438551051464 62.58185411912916 457.04569745678197 68.5 C 457.0470206398716 74.46883481191878 457.61475485760104 77.89642606680583 459.28179020221046 82 C 460.51066581150604 85.025 462.97498485617507 89.4125 464.75805474591937 91.75 L 468 96 L 465.25 95.97428580390675 C 463.61264607201895 95.9589755348238 461.48850357089185 96.96862046991967 460 98.46970967798336 C 458.625 99.85633561657679 456.17955134018877 101.10540700481876 454.56566964486393 101.24542387407661 L 451.63133928972786 101.5 L 454.6524157865249 104.5 C 456.31400785976325 106.15 458.6469565195745 109.6375 459.83674614166097 112.25 L 462 117 L 459.4695367433171 120.75 C 458.0777819521416 122.8125 456.9527819521416 125.7375 456.9695367433171 127.25 C 456.9862915344927 128.7625 457.675 131.125 458.5 132.5 C 459.325 133.875 460.45 135 461 135 C 461.55 135 462.0016821271969 133.7625 462.0037380604375 132.25 C 462.00579399367814 130.7375 462.9057939936781 128.0375 464.0037380604375 126.25 C 465.1016821271969 124.4625 466.675 123 467.5 123 C 468.325 123 469.225 123.45 469.5 124 C 469.775 124.55 469.1 126.8 468 129 C 466.9 131.2 465.3471135736698 135.8125 464.5491412748217 139.25 C 463.7511689759736 142.6875 462.96366897597363 148.0778985829259 462.7991412748217 151.22866351761314 C 462.54923378247656 156.01448230851418 462.86110409513793 157.33115203270137 464.69404510336625 159.22866351761314 L 466.8880902067325 161.5 L 467.4766724696061 156.5 C 467.80039271418656 153.75 468.50175280729314 149.025 469.0352504542874 146 C 469.5687481012816 142.975 471.32599927104434 137.8 472.9402530537602 134.5 C 474.55450683647604 131.2 477.2628906177599 127.15 478.9588836788355 125.5 L 482.04250742624566 122.5 L 482.02125371312286 126.75 C 482.00956417090526 129.0875 482.45 131.9 483 133 L 484 135 L 483 135 C 482.45 135 482 135.9 482 137 C 482 138.1 482.675 140.125 483.5 141.5 C 484.325 142.875 485.45 144 486 144 C 486.55 144 487 142.875 487 141.5 C 487 140.125 486.55 138.775 486 138.5 C 485.45 138.225 485 137.55 485 137 C 485 136.45 485.45 136.225 486 136.5 C 486.63956639566396 136.81978319783198 487.090108401084 131.50338753387533 487.25 121.75 L 487.5 106.5 L 489.5 106.5 L 491.5 106.5 L 491.75 127.75 L 492 149 L 494.03458540183794 151.75 C 495.8262622723289 154.17167833770904 496.07209875307666 154.26122060924294 496.0936951094917 152.5 C 496.1071834776904 151.4 496.09162004686334 140.0375 496.05910970765376 127.25 L 496 104 L 499.09848511400367 102.25 C 500.80265192670566 101.2875 503.27765192670563 99.7125 504.59848511400367 98.75 C 505.91931830130164 97.7875 507.8479162699469 95.3125 508.8842583776597 93.25 C 509.9206004853725 91.1875 511.3130472731543 86.8 511.97858457273037 83.5 C 512.8931453386522 78.96524209918081 512.9159800196568 76.03475790081919 512.0720899982871 71.5 C 511.45177801698946 68.16666913113093 509.4049713315553 62.83333086886907 507.4667792121693 59.5 C 505.5479675953243 56.2 501.8454738838769 51.554137435872754 499.2390154089528 49.175860968606116 C 496.2249600946034 46.425670664743265 492.68004380050695 44.329175241487434 489.5 43.41611954230196 C 486.75 42.626538225101314 482.7 42.0235795238877 480.5 42.07621131738281 Z " class="odd" fill="#000000"></path><path d="M 485 48.04946975846052 C 487.475 48.02839601915021 491.3 48.51518814758483 493.5 49.1312300438708 C 495.7 49.74727194015677 498.9966285711638 51.43226231967556 500.8258412692529 52.875653109468104 C 503.32728952147386 54.84948992580456 504.6339191512116 57.11118771970476 506.097165330022 62 C 507.16718086535593 65.575 508.03486320307616 70.075 508.02534830273373 72 C 508.01583340239125 73.925 507.44373757504513 77.77130158473166 506.7540242419646 80.54733685495924 C 506.06431090888407 83.32337212518682 504.295501141312 87.37337212518682 502.82333586958225 89.54733685495924 C 501.35117059785256 91.72130158473166 498.31823296588385 94.4 496.0834744652074 95.5 C 493.848715964531 96.6 491.79071482321893 98.2875 491.5101385956251 99.25 C 491.1187902662336 100.59249708277017 489.8939206532333 101.00805351551001 486.25 101.03458540183792 C 483.08859255317134 101.05760404329517 480.6638986562256 100.43472888209368 479 99.1721462195563 C 477.625 98.12878269829055 475.375 96.93598947045872 474 96.52149460215223 C 472.625 96.10699973384574 470.0375 94.69509736587247 468.25 93.38393378443385 C 466.0092997099779 91.74033959299557 464.4738131720314 89.36959277618955 463.3056497747974 85.75 C 462.37375715093594 82.8625 461.586257150936 77.31818271083374 461.5556497747974 73.42929491296385 C 461.50874924823756 67.47024489095338 461.97165949562674 65.44164060659257 464.5 60.52631530689137 C 466.15 57.31856432142138 468.625 53.85291073783673 470 52.82486289892549 C 471.375 51.79681506001424 474.3 50.31040765357288 476.5 49.5217353290558 C 478.7 48.733063004538714 482.525 48.070543497770835 485 48.04946975846052 Z " class="even" fill="#ffffff"></path><path d="M 147.70045699517829 71.20916646440409 C 140.60474886427085 70.95751343037418 138.79273069283428 71.26062884773091 134.25 73.45916646440409 C 131.3625 74.85662490898184 128.775 76.45 128.5 77 L 128 78 L 128.5 78 C 128.775 78 130.6875 77.35547199833194 132.75 76.56771555184875 C 134.8125 75.77995910536558 138.75 74.679780521555 141.5 74.12287425449193 C 144.25 73.56596798742885 149.2 73.36758470833497 152.5 73.6820225231722 C 157.57079059729855 74.16518867920604 158.29874207011747 74.04049517301222 157.20045699517829 72.87686382052902 C 156.35431802179056 71.98038087592886 153.0398157062524 71.3985296392454 147.70045699517829 71.20916646440409 Z " class="odd" fill="#000000"></path><path d="M 157.5 80.43662872638467 C 152.55 80.25690210183264 146.1375 80.53513611017026 143.25 81.0549265226905 C 140.3625 81.57471693521072 135.6375 82.93215282259082 132.75 84.0714507168685 C 129.8625 85.21074861114619 125.29046788997307 87.57324861114618 122.58992864438461 89.3214507168685 C 119.88938939879615 91.06965282259083 115.27688939879616 95.0875 112.33992864438461 98.25 C 109.40296788997307 101.4125 107.225 104.225 107.5 104.5 C 107.775 104.775 111.0375 103.21262026454214 114.75 101.02804503231587 C 118.4625 98.84346980008961 125.325 95.51228517033886 130 93.62541252175865 C 134.675 91.73853987317844 141.425 89.63000817995893 145 88.9397865368264 C 149.23461072146108 88.12221451719185 155.15947498840902 87.90256090899946 162 88.30954233695476 C 167.775 88.65312967015791 174.975 89.20463726989294 178 89.53511478081037 L 183.5 90.13598298247847 L 180.5 87.56058742918276 C 178.85 86.14411987487013 175.025 84.03528969547486 172 82.87429814163772 C 168.27724696465464 81.4455097677344 163.5917776942015 80.65781148244533 157.5 80.43662872638467 Z " class="odd" fill="#000000"></path><path d="M 157.5 95.37463369465081 C 151.45 95.21391339743761 144.8125 95.51387160364486 142.75 96.04120748622249 C 140.6875 96.56854336880012 136.6375 98.035764790849 133.75 99.30169953522 C 130.8625 100.56763427959099 126.7 102.9028519783869 124.5 104.4910721992109 C 122.3 106.0792924200349 118.80538773392955 108.9810276291859 116.7341949642879 110.93937266399091 C 114.66300219464623 112.89771769879592 112.97550219464623 114.8375 112.9841949642879 115.25 C 112.99288773392955 115.6625 115.1375 114.80093302940296 117.75 113.33540673200658 C 120.3625 111.8698804346102 125.65 109.6186713321836 129.5 108.33271983772525 C 133.35 107.0467683432669 140.1 105.48059308523649 144.5 104.85233037543544 C 149.41161095035878 104.15101628335341 157.71165652126956 103.95057566251532 166 104.33311956975956 C 173.425 104.67581633643886 181.525 105.22603016998731 184 105.555816977645 L 188.5 106.15542935520442 L 186 104.0960004250228 C 184.625 102.96331451342289 180.125 100.60338470229463 176 98.8517119558489 C 169.34589890776584 96.02606164424613 167.25934826861013 95.63389408379763 157.5 95.37463369465081 Z " class="odd" fill="#000000"></path><path d="M 238.25 99.03914181063521 C 235.0875 99.06066980648457 231.15 99.66905183507188 229.5 100.39110187416259 C 227.85 101.11315191325328 223.575 103.76025926009248 220 106.27356264491638 C 216.425 108.78686602974027 211.475 111.76860110093205 209 112.89964058089808 C 206.525 114.03068006086413 202.5875 114.96595889923908 200.25 114.97803799950908 C 197.9125 114.99011709977908 195.99288773392954 115.3375 195.9841949642879 115.75 C 195.97550219464623 116.1625 197.66300219464623 118.13429527041554 199.7341949642879 120.13176726759006 C 201.80538773392954 122.12923926476459 204.5125 124.2667392647646 205.75 124.88176726759006 C 206.9875 125.49679527041553 210.3625 125.9983178728031 213.25 125.99626193956244 C 216.7393766820805 125.9937774631954 219.5899096729978 125.32306381827367 221.75 123.99626193956244 L 225 122 L 225.75 123.75 C 226.1625 124.7125 226.46894523854343 128.875 226.4309894189854 133 C 226.37755496652488 138.80720213569762 225.83584422411298 141.51567871858143 224.0309210742845 145 C 222.74883930425705 147.475 219.32142875590966 152.875 216.41445318906807 157 C 213.5074776222265 161.125 210.41572102955388 166.525 209.54388298312892 169 C 208.67204493670394 171.475 207.98594085751677 175.075 208.0192072516018 177 L 208.07969160448374 180.5 L 210.08951202427806 176.5 C 211.19491325516492 174.3 213.79186181276987 170.25 215.86050881895574 167.5 C 217.92915582514158 164.75 222.7856672850668 159.8 226.65275650767845 156.5 C 230.5198457302901 153.2 234.98811918025416 148.475 236.58225306315416 146 L 239.4806783047905 141.5 L 239.99033915239525 123.35315482255035 C 240.4209998865813 108.01916614358899 240.7673409540933 104.91906089556086 242.2247217929995 103.35315482255035 C 243.1733187791492 102.33391967014767 243.9608187791492 100.9375 243.9747217929995 100.25 C 243.99216235521104 99.38756926019389 242.2171814031081 99.01213613007243 238.25 99.03914181063521 Z " class="odd" fill="#000000"></path><path d="M 467.25 105.97222222222223 C 469.18348966899777 105.99175242089896 470.00631050048617 106.51959748336508 470.02125371312286 107.75 C 470.0329432553404 108.7125 468.7954432553404 110.74381436369872 467.27125371312286 112.26403191933048 C 465.7470641709053 113.78424947496224 464.15 114.68424947496224 463.72222222222223 114.26403191933048 C 463.2944444444445 113.84381436369871 462.94444444444446 112.15 462.94444444444446 110.5 C 462.94444444444446 108.85 463.2944444444445 107.15 463.72222222222223 106.72222222222223 C 464.15 106.29444444444444 465.7375 105.95694444444445 467.25 105.97222222222223 Z " class="even" fill="#ffffff"></path><path d="M 479.25 105.97222222222223 L 482 106 L 482 110.5 C 482 112.975 481.55 115 481 115 C 480.45 115 478.5375 116.33117588601549 476.75 117.95816863558996 C 474.9625 119.58516138516443 472.7125 120.93516138516443 471.75 120.95816863558996 C 470.257452337328 120.99384595283372 470.36778905332574 120.55865313600913 472.5 118 C 474.2082721488008 115.95007342143907 474.9912030238756 113.81240822320117 474.97222222222223 111.25 C 474.95694444444445 109.1875 475.2944444444445 107.15 475.72222222222223 106.72222222222223 C 476.15 106.29444444444444 477.7375 105.95694444444445 479.25 105.97222222222223 Z " class="even" fill="#ffffff"></path><path d="M 159.25 109.95547464893012 C 158.8375 109.93098570584169 157.825 110.67465003289922 157 111.60806204239131 C 155.9681049954294 112.7755568179078 155.34396500152354 116.42382456059136 155 123.29860512024385 C 154.5960283646074 131.37272991011167 154.16390072387412 133.50406267807054 152.75 134.39601772678265 C 151.4705164444544 135.2031761063229 150.52948355554554 135.19868295970787 149.25 134.37930628838564 C 147.79886771694237 133.45000638876087 147.5 131.74219086337595 147.5 124.37930628838562 C 147.5 119.1425279243438 146.98721670842852 114.57699007517134 146.25 113.25 C 145.5625 112.0125 144.325 111 143.5 111 C 142.675 111 142.0143115173417 111.3375 142.03180337187047 111.75 C 142.0492952263992 112.1625 142.73193768275175 113.4 143.54878660820944 114.5 C 144.36563553366713 115.6 145.0333112594899 117.175 145.0325104433711 118 C 145.03131304308488 119.23356063019442 144.14016514187463 119.3667803150972 140.0155272070321 118.75 L 135 118 L 134.97118984273408 118.75 C 134.95534425623785 119.1625 136.08034425623785 120.0625 137.47118984273408 120.75 C 138.86203542923033 121.4375 141.125 122 142.5 122 C 144.5 122 145 122.5 145 124.5 C 145 126.5554826649455 144.59993439845096 126.9222532079041 142.75 126.56274600580895 C 141.5125 126.32225630900388 139.2625 125.87225630900387 137.75 125.56274600580895 C 136.2081693294607 125.24723362345269 135 125.43933430162207 135 126 C 135 126.55 137.25195024991572 127.7875 140.00433388870158 128.75 C 143.78961945594594 130.07370259259346 144.99967201924554 130.98719703703605 144.97173915315548 132.5 C 144.95142840981924 133.6 145.73697815990352 135.27612480684977 146.71740526445387 136.2247217929995 C 147.69783236900426 137.1733187791492 149.4 137.96429819184374 150.5 137.98245382120956 C 151.6 138.00060945057535 153.5125 137.3369846437256 154.75 136.50773202821006 C 155.9875 135.67847941269451 157.225 133.65 157.5 132 C 157.7962962962963 130.22222222222223 158.61111111111111 129 159.5 129 C 160.325 129 162.58543703590533 128.2125 164.52319341312295 127.25 C 166.46094979034055 126.2875 167.87501684573414 125.05 167.6655646473309 124.5 C 167.45611244892768 123.95 166.65817541302235 123.57682253040173 165.89237123420799 123.67071673422608 C 165.1265670553936 123.76461093805042 163.0375 124.32711093805042 161.25 124.92071673422608 L 158 126 L 158.25 123.84949890904592 C 158.43990980669963 122.21589392308407 159.64171367270674 121.3746312168791 163.25 120.34949890904592 C 166.12243459261387 119.53342578293262 167.86259492697292 118.50590384016155 167.65238276423764 117.75 C 167.46119328456834 117.0625 166.22369328456833 116.5373139529261 164.90238276423764 116.58291989539134 C 163.58107224390693 116.62852583785659 161.6 116.85352583785658 160.5 117.08291989539134 C 159.00337509078938 117.39502613223809 158.52889830388688 116.99662490921064 158.6148181720377 115.5 C 158.67796816665845 114.4 159.01546816665842 112.7125 159.3648181720377 111.75 C 159.71416817741698 110.7875 159.6625 109.97996359201855 159.25 109.95547464893012 Z " class="odd" fill="#000000"></path><path d="M 60.5 111.38089398292735 C 57.75 111.19300224344494 54.825 111.31585896376146 54 111.65390891696404 C 53.175 111.99195887016663 51.9375 112.65812252652351 51.25 113.1342725977571 C 50.31054223515905 113.78492406197525 50.6210844703181 114.6210844703181 52.5 116.5 C 53.875 117.875 55.43675191842603 120.6875 55.970559818724524 122.75 C 56.504367719023016 124.8125 57.666205721858184 131.675 58.55242204724712 138 C 59.438638372636056 144.325 60.725913184686924 150.85 61.41303274069349 152.5 C 62.10015229670005 154.15 64.20081429386488 157.23484258511695 66.0811705121709 159.35520574470434 C 67.9615267304769 161.4755689042917 71.975 164.61734985839811 75 166.33694119827413 C 78.025 168.05653253815012 83.0875 171.6091899530332 86.25 174.2317354535698 C 89.4125 176.8542809541064 93.2375 180.88581816191555 94.75 183.190707026479 C 96.959856577423 186.55829302157625 97.56399329388852 187.00022854913925 97.82580524141866 185.440707026479 C 98.00499812419893 184.37331816191556 97.10499812419894 181.2551982021613 95.82580524141866 178.5115515603584 C 94.5466123586384 175.76790491855553 89.9 169.68770671639425 85.5 165 C 81.1 160.31229328360573 76.42521243304998 154.23209508144444 75.11158318455551 151.48844843964156 C 73.61729835879594 148.3674844775564 72.52270957539328 143.879467483514 72.18770361595048 139.5 L 71.65224086278992 132.5 L 74.07612043139497 133.31751102016952 C 75.40925419412773 133.76714208126276 77.85 134.50725216227994 79.5 134.96220008909663 C 81.15 135.4171480159133 84.3 135.40147356654722 86.5 134.92736797939426 C 88.7 134.4532623922413 91.625 133.22177587205377 93 132.19073126786645 C 94.375 131.1596866636791 96.52511843501053 128.7824811539689 97.77804096669007 126.90805235739928 C 99.03096349836962 125.03362356082968 100.04242303391278 123.05 100.02572882345268 122.5 C 100.008451641156 121.93079367030377 96.87311766049443 121.48784789225238 92.74768785676261 121.471791350279 L 85.5 121.443582700558 L 75.5 116.58304901399941 C 68.61491428073347 113.23652990666558 63.942542859633264 111.616103206978 60.5 111.38089398292735 Z " class="odd" fill="#000000"></path><path d="M 185.93560849295562 118 L 183.91543465173194 115.5 L 184.70771732586599 122.5 C 185.14347279663968 126.35 185.45523079370844 134.675 185.40051287490763 141 C 185.3254217121863 149.68000126140117 184.7321282015092 154.58434689374698 182.98105244061793 161 C 181.4640870764156 166.5579111813925 180.63320212486397 172.4420888186075 180.58053956571032 178 C 180.50838401574288 185.61516615236445 180.78841245114455 186.96844144874822 183.27058324710282 191 C 184.79440403300939 193.475 189.90860613860585 200 194.635476815095 205.5 C 199.3623474915841 211 205.0905850303878 218.2 207.36489356799214 221.5 L 211.5 227.5 L 211.4226651840757 236.5 C 211.3643111755068 243.2910690785657 210.84535513051642 246.60446546071717 209.30824668434255 250 C 208.1878506582477 252.475 205.52265132541362 256.18749999999983 203.38558150026685 258.24999999999955 C 201.24851167512008 260.3124999999993 199.275 261.77765373271376 199 261.50589718380934 C 198.725 261.234140634905 199.26002280896722 260.22164063490516 200.18893957548272 259.2558971838098 C 201.11785634199825 258.29015373271443 202.86211656097552 255.25 204.06507339543228 252.5 C 205.4256773415774 249.38961337204685 206.26103552610834 245.42142529074846 206.27546785201378 242 C 206.29129613182093 238.24764038755364 205.54536509798476 234.91123601131488 203.9279478957819 231.5 C 202.6240518031913 228.75 198.6193514887624 223.5229379893765 195.02861386371768 219.88430664305884 C 191.43787623867294 216.24567529674118 185.125 211.0576562130368 181 208.35537534593794 C 176.875 205.65309447883908 169 201.70262523991843 163.5 199.57655481500313 C 158 197.45048439008784 150.9125 194.42600347379224 147.75 192.85548611212403 C 144.5875 191.28496875045582 140.18824089055008 188.3125 137.97386864566684 186.25 C 135.7594964007836 184.1875 133.74393330260014 182.725 133.4948395385925 183 C 133.2457457745848 183.275 134.94500488403472 185.38691663704583 137.27097089292562 187.6931480823241 C 139.59693690181655 189.99937952760234 144.65 193.42550061132567 148.5 195.3067504905982 C 152.35 197.18800036987074 157.3 199.30395836863494 159.5 200.00887937674094 C 161.7 200.7138003848469 165.975 202.479468449324 169 203.93258618669006 C 172.025 205.38570392405614 177.2 208.3417851346803 180.5 210.50165554363264 C 183.8 212.66152595258498 189.453832598568 217.36973680438453 193.06407244126223 220.96434632540937 C 196.67431228395643 224.5589558464342 200.60540437633503 229.525 201.79983264654797 232 C 203.21702811675237 234.93660061154662 203.97307369268495 238.41082147477636 203.97599128958177 242 C 203.9790770198738 245.79601339408407 203.20894936617822 249.1265326692834 201.490231084296 252.75 C 200.1206039879332 255.6375 198.55 258.225 198 258.5 C 197.35802469135803 258.820987654321 197.2685185185185 257.6574074074074 197.75 255.25 C 198.1625 253.1875 198.43828400852297 249.475 198.3628533522733 247 C 198.2874226960236 244.525 197.33453521495383 240.7 196.2453256165627 238.5 C 195.15611601817153 236.3 192.51783200964854 232.81704468521494 190.3824722642894 230.76009930047763 C 188.24711251893024 228.70315391574036 183.8 225.18499177551058 180.5 222.94196121107817 C 177.2 220.69893064664575 169.775 216.6019836624069 164 213.83763457943627 C 158.225 211.07328549646562 150.35 206.95623203564637 146.5 204.6886268887268 C 142.65 202.4210217418072 136.9125 198.41342404083113 133.75 195.78285421989105 C 130.5875 193.15228439895097 126.55418703379772 188.8625 124.78708229732827 186.25 C 123.01997756085882 183.6375 120.31997756085882 178.9125 118.78708229732827 175.75 C 117.25418703379772 172.5875 114.69357658803573 165.6125 113.09683686230161 160.25 C 111.5000971365675 154.8875 109.5875971365675 145.88463287949062 108.84683686230161 140.24362862109027 C 108.10607658803573 134.6026243626899 107.1625 129.99012436268993 106.75 129.99362862109027 C 106.3375 129.9971328794906 105.71458613070027 134.3875 105.36574695711171 139.75 C 105.01690778352315 145.1125 104.96521329615688 154 105.25087031851999 159.5 C 105.61651795326085 166.54012796338094 106.54421674699418 171.79390082837978 108.38512336140829 177.25 C 109.82330551263372 181.5125 112.50075387132556 187.3625 114.33500860294568 190.25 C 116.1692633345658 193.1375 120.5567633345658 198.1530801537747 124.08500860294568 201.3957336750549 C 127.61325387132555 204.63838719633512 133.66765285250645 209.13838719633512 137.53922856112547 211.3957336750549 C 141.4108042697445 213.6530801537747 149.06080426974447 217.47622159071727 154.53922856112547 219.8916035349273 C 160.01765285250647 222.30698547913732 167.425 225.60763793412036 171 227.226386768223 C 174.575 228.84513560232563 178.7375 231.03141401160832 180.25 232.0847832332957 C 181.7625 233.13815245498307 183.9832046300087 235.9125 185.18489917779706 238.25 C 186.57092066001914 240.94604719490218 187.37106707275893 244.32817977070331 187.37326824730047 247.5 C 187.37524654136246 250.35065677755466 186.5142140923792 254.43440890020082 185.37025532690785 257 C 184.26668978025347 259.475 181.59442369897693 263.21337743234307 179.43188625740447 265.3075054052068 C 176.68376863451465 267.9686893811147 173.5430522093931 269.7062555148991 169 271.0788294659759 C 165.425 272.1589297265352 159.6875 273.0330522941921 156.25 273.0213240607691 C 152.8125 273.00959582734606 146.9625 272.3148096542299 143.25 271.4773547871776 C 139.5375 270.6398999201253 134.25 268.6845266030079 131.5 267.132080749139 C 128.11931257867616 265.2235955962441 125.85622566822879 263.0448575506253 124.51219869391272 260.4047259619614 C 123.27542285062702 257.97527251024286 122.54563398672144 254.61091415298478 122.58060605332773 251.5 C 122.61333560475458 248.58856711555072 123.54809524856066 244.5158612402268 124.818407359415 241.75 C 126.12905087717252 238.89632484840118 128.29748542259028 236.20303976422952 130.25 235.00373806043757 C 132.0375 233.9057939936782 134.5125 233.00579399367822 135.75 233.00373806043757 C 137.48233651721665 233.00086002550444 138 232.42481835246295 138 230.5 L 138 228 L 133.75 227.99025857369577 C 131.4125 227.98490078922845 127.25 228.63927719660364 124.5 229.44442836786286 C 121.75 230.24957953912207 118.3138726817399 232.16646318095897 116.86416151497755 233.7041697941671 C 115.4144503482152 235.2418764073752 113.5019503482152 237.9625 112.61416151497755 239.75 C 111.63566763293336 241.72012819791323 111.0095767724752 245.46129192708997 111.02431845946887 249.25 C 111.04159548252764 253.69030569681132 111.69308543167557 256.77317133795657 113.27431845946887 259.897052501192 C 114.49844330676099 262.3154313768476 117.355964675385 266.1404313768476 119.62436594529999 268.397052501192 C 121.89276721521496 270.6536736255364 126.39276721521496 273.93581915969344 129.62436594529999 275.6907092437632 C 132.855964675385 277.44559932783295 138.425 279.5764478388197 142 280.4259281570672 C 145.575 281.27540847531463 152.1 281.96894691171 156.5 281.96712468239036 C 160.9 281.9653024530707 167.2 281.2523754030434 170.5 280.38284234899635 C 173.8 279.5133092949493 178.3 277.87416706633235 180.5 276.7403040631809 C 182.7 275.6064410600294 186.75 272.5152267653639 189.5 269.8709389639242 C 192.25 267.2266511624845 195.4 265.0445397829458 196.5 265.02180256494927 C 197.6 264.99906534695276 200.75 263.9334477660083 203.5 262.65376349618384 C 206.25 261.37407922635936 209.87487896704434 258.79097523842614 211.55528659343184 256.91353241188784 C 213.23569421981938 255.03608958534954 215.2555873349661 251.7 216.04393796042456 249.5 C 216.8572977428105 247.23020853480216 217.4822116094073 241.82330686354544 217.4886513669927 237 C 217.4987931552614 229.40391329699705 217.14359955024784 227.7556008142377 214.14856813927014 221.5 C 211.5319939776255 216.03486751554493 208.51326766880706 212.1976987266826 200.38120128335822 204 C 191.72051845731158 195.2694184712603 189.71377722809132 192.65741977559034 188.4728917177839 188.5 C 187.65208570406818 185.75 186.97578437466277 181.475 186.9699998746608 179 C 186.96421537465883 176.525 188.39686732256195 167.075 190.15367087000106 158 L 193.3478591380722 141.5 L 192.12578906201452 135.5 C 191.45365052018278 132.2 190.24043323930687 127.475 189.42975066006807 125 C 188.61906808082924 122.525 187.04670410562863 119.375 185.93560849295562 118 Z " class="odd" fill="#000000"></path><path d="M 151 121.95555555555555 C 150.725 121.94944444444444 150.15 122.29444444444444 149.72222222222223 122.72222222222223 C 149.29444444444445 123.15 148.95694444444445 124.2875 148.97222222222223 125.25 C 148.9892710170488 126.32407407407408 149.77248677248676 127 151 127 C 152.1 127 153.19679327207925 126.4375 153.4373183823983 125.75 C 153.67784349271736 125.0625 153.34034349271738 123.93 152.6873183823983 123.23333333333333 C 152.03429327207922 122.53666666666666 151.275 121.96166666666667 151 121.95555555555555 Z " class="odd" fill="#000000"></path><path d="M 222.25 128.03803724649958 C 221.8375 128.05895773207436 220.9375 128.73395773207434 220.25 129.53803724649958 C 219.5625 130.34211676092482 216.8625 131.27668419038602 214.25 131.61485375641342 C 211.47094713428893 131.97458240773003 207.12112206397464 131.66338022863178 203.76688316518596 130.86485375641342 C 200.61366890603824 130.11418419038603 198.03706541681453 129.725 198.04109763357775 130 C 198.04512985034094 130.275 199.61253242600725 134.6625 201.5242144683918 139.75 C 203.4358965107763 144.8375 205.3446065605897 151.3625 205.765792356866 154.25 C 206.32862367637068 158.10857132277005 206.99120876076591 159.56625850843952 208.265792356866 159.75 C 209.4510199266086 159.9208601006395 211.47438971228908 157.70494291854527 214.65754228967606 152.75 C 217.2191905489979 148.7625 220.13430764877697 143.7 221.13558028918516 141.5 C 222.13685292959332 139.3 222.96595889923907 135.3625 222.97803799950907 132.75 C 222.9901170997791 130.1375 222.6625 128.0171167609248 222.25 128.03803724649958 Z " class="odd" fill="#000000"></path><path d="M 180.75 131.49018377064317 C 180.3375 131.22058269678942 179.6625 131.51588124372648 179.25 132.14640276383665 C 178.74595886269438 132.91684830102932 176.69630167357445 133.07802619000128 173 132.63788095415163 C 168.4784669921395 132.0994694856358 166.9218149591903 132.3402786158607 164.25 133.99147819031498 C 162.37852556920723 135.14806194739657 159.93959571599444 138.12080856801109 158.5 141 C 157.125 143.75 156.00815191973751 146.5625 156.01811537719445 147.25 C 156.02807883465138 147.9375 157.39786832591628 146.025 159.06209202444973 143 C 160.72631572298317 139.975 162.75834925892661 136.825 163.57772210432404 136 C 164.688124388049 134.8819718773707 166.96875709059816 134.56366197956177 172.53374545706876 134.75 C 178.37300440246884 134.9455216940376 180.16343491788714 134.67099107804054 180.75 133.49018377064317 L 181.5 131.98036754128634 L 180.75 131.49018377064317 Z " class="odd" fill="#000000"></path><path d="M 120.23333333333333 132.76666666666665 C 119.21111111111111 131.74444444444444 118.96988304093567 131.83771929824562 118.98333333333333 133.25 C 118.9936641756542 134.3347384436917 120.04541101705591 135.23671164043145 121.75 135.62268045827534 C 123.2625 135.96515471032677 126.3 135.96598666394752 128.5 135.62452924409916 C 130.93657850893067 135.2463529664095 133.45560287121447 135.4915441797345 134.9449014591986 136.25184878582382 C 136.28959726175785 136.93833195362072 139.12898417128812 140.425 141.2546501470437 144 C 143.38031612279926 147.575 144.81060211876118 149.375 144.43306347140356 148 C 144.0555248240459 146.625 143.07726523277572 144.15 142.25915326858092 142.5 C 141.4410413043861 140.85 139.5855496517848 138.25293582909472 138.13583848502245 136.72874628687717 L 135.5 133.95749257375434 L 128.5 133.99541295354385 C 124.13732539358563 134.01904642182572 121.0227696906845 133.55610302401783 120.23333333333333 132.76666666666665 Z " class="odd" fill="#000000"></path><path d="M 100.25 136.06696371080005 C 99.8375 136.10379375174006 97.7 137.1022911041995 95.5 138.2858467162655 C 92.70587157804961 139.7890314320075 89.69119263292558 140.4466963002716 85.5 140.4673886987967 C 82.2 140.48368117712286 78.7125 140.1601838246634 77.75 139.74850569333123 C 76.28791911799878 139.12314805659486 76.00154391471378 139.5347069334263 76.00938406163473 142.25 C 76.01454529553384 144.0375 77.31296378875703 147.75 78.89475849101962 150.5 C 80.4765531932822 153.25 84.82660088221058 158.65 88.56153113308272 162.5 L 95.35231340739567 169.5 L 96.03648888260079 162.5 C 96.41278539396362 158.65 97.48966732081124 151.9 98.42955983115107 147.5 C 99.36945234149088 143.1 100.33230286098454 138.7125 100.56922765224809 137.75 C 100.80615244351165 136.7875 100.6625 136.03013366986002 100.25 136.06696371080005 Z " class="odd" fill="#000000"></path><path d="M 181.84722222222223 138.1640924773077 C 181.5948780822253 137.19322018471163 180.9535022463822 137.3952760753772 179.5 138.9035498285153 C 178.4 140.04500050916025 175.925 141.25245849283195 174 141.5867897922302 C 172.075 141.92112109162846 169.375 142.7665373829122 168 143.4654926617496 C 166.625 144.16444794058702 164.6505666902848 146.03314834212685 163.61237042285512 147.61816022072702 L 161.72474084571022 150.5 L 164.61237042285512 147.7823629771803 C 166.49479081240227 146.01075924253433 169.41459824887025 144.697115156058 173 144.00870316114157 C 176.025 143.42789062487108 179.33125 142.17582728513995 180.34722222222223 141.22634018396127 C 181.36319444444445 140.27685308278257 182.03819444444446 138.89884161478847 181.84722222222223 138.1640924773077 Z " class="odd" fill="#000000"></path><path d="M 119 138 C 118.45 138 117.98533236900425 138.5625 117.96740526445389 139.25 C 117.94947815990352 139.9375 118.73697815990353 141.27162191065847 119.71740526445389 142.21471535701886 C 120.69783236900425 143.15780880337923 123.75 144.2411481904476 126.5 144.62213621717086 C 130.35396059270954 145.15606815945648 132.34941744305058 146.13828917391908 135.20588235294116 148.907420860152 C 137.24411764705883 150.8833393870684 138.93161764705883 152.1625 138.95588235294116 151.75 C 138.98014705882352 151.3375 137.5375 149.48683177999635 135.75 147.63740395554743 C 133.58126700583827 145.39353534396528 130.58698914351692 143.73004764267566 126.75 142.63740395554743 C 123.5875 141.73683177999635 120.775 140.325 120.5 139.5 C 120.225 138.675 119.55 138 119 138 Z " class="odd" fill="#000000"></path><path d="M 183.80035375576443 141.5 L 183.4125092664236 139.5 L 182.2062546332118 141.75 C 181.54281458494532 142.9875 179.7625 144.25620908868916 178.25 144.56935353042036 C 176.7375 144.88249797215155 173.7 145.76429172118492 171.5 146.52889519493894 C 169.3 147.29349866869296 166.2625 149.2872895800038 164.75 150.95954166451858 C 163.2375 152.63179374903336 161.97996359201855 154.3375 161.95547464893014 154.75 C 161.9309857058417 155.1625 162.60598570584168 154.9375 163.45547464893014 154.25 C 164.54880496580486 153.36515670808075 165.58425073292918 153.2921253664646 167 154 C 168.1 154.55 169.675 155 170.5 155 C 171.325 155 172.675 154.325 173.5 153.5 C 174.325 152.675 175 150.875 175 149.5 C 175 147.66666666666666 175.53333333333333 147 177 147 C 178.1 147 179 147.225 179 147.5 C 179 147.775 177.9875 149.56132022103043 176.75 151.4696004911787 C 175.3758777664369 153.58855834740544 172.7482444671262 155.69808516355084 170 156.88866182394412 C 166.70311947646232 158.3169150417278 166.10155973823115 158.8597624181861 167.75 158.9190613327654 C 168.9875 158.96357759974444 171.0125 158.49376656418303 172.25 157.87503680929564 C 173.4875 157.25630705440824 175.52636780450172 155.79380705440823 176.78081734333713 154.62503680929564 C 178.03526688217255 153.45626656418304 179.56862817475744 150.925 180.18828688241462 149 C 180.8079455900718 147.075 181.96142239071878 145.05 182.7515686616301 144.5 C 183.54171493254142 143.95 184.01366822490186 142.6 183.80035375576443 141.5 Z " class="odd" fill="#000000"></path><path d="M 118.49668684940201 143.25 C 116.79598191326588 141.381700553222 115.98016030972926 140.98092757448472 115.95216149833212 142 C 115.92949478807259 142.825 116.62906028252117 144.175 117.50675148599562 145 C 118.38444268947008 145.825 119.58637142094044 148.075 120.1777042225964 150 C 120.76903702425237 151.925 121.9834624475729 154.34960724655903 122.8764273855309 155.3880161034645 C 123.7693923234889 156.42642496036999 125.9625 157.88892496037 127.75 158.6380161034645 C 129.5375 159.38710724655903 132.2375 160.02003640798145 133.75 160.04452535106986 C 135.2625 160.0690142941583 137.175 159.37397788617687 138 158.5 C 139.06512026524177 157.37164659643616 139.13760022103483 156.9238580797691 138.25 156.95547464893014 C 137.5625 156.97996359201855 137.00826611853924 157.5625 137.01836915230942 158.25 C 137.03178562479985 159.1629757503539 136.02071287586156 159.29718725706016 133.26836915230942 158.74778134231877 C 131.19576611853924 158.33406108059407 129.05 157.53906108059408 128.5 156.9811146756521 C 127.82672659499931 156.29811381044632 128.56186143374777 155.97211210991665 130.75 155.98333333333335 C 132.5375 155.9925 134.225 155.55 134.5 155 C 134.775 154.45 135.76324718375633 154.3375 136.69610485279188 154.75 L 138.39220970558375 155.5 L 136.94610485279188 153.22005424735303 C 136.15074718375635 151.9660840833972 133.25 149.82323254640326 130.5 148.45816194292206 C 127.75 147.09309133944083 124.4875 145.98156692813197 123.25 145.988107695569 C 122.0125 145.99464846300606 119.8735090822309 144.7625 118.49668684940201 143.25 Z " class="odd" fill="#000000"></path><path d="M 123.75 148.3093901600189 C 124.7125 148.4795547480293 125.37600536769253 149.2670547480293 125.22445637265008 150.0593901600189 C 125.07290737760762 150.85172557200852 125.63540737760762 152.5125 126.47445637265008 153.75 C 127.31350536769253 154.9875 127.55000000000001 156 127 156 C 126.45 156 125.08443656917295 154.7625 123.9654145981621 153.25 C 122.84639262715125 151.7375 121.94639262715125 149.9375 121.9654145981621 149.25 C 121.98443656917294 148.5625 122.7875 148.1392255720085 123.75 148.3093901600189 Z " class="even" fill="#ffffff"></path><path d="M 492.75 152.97243161516192 C 492.3375 152.98759422682286 491.98533236900425 154.2375 491.9674052644539 155.75 C 491.94947815990355 157.2625 492.7369781599036 159.28856813172368 493.7174052644539 160.25237362605264 C 494.69783236900423 161.21617912038158 495.8147611509141 161.66617912038157 496.1994692242535 161.25237362605264 C 496.58417729759293 160.8385681317237 496.65587241430524 159.825 496.35879170583644 159 C 496.06171099736764 158.175 495.2969498464536 156.47509422682288 494.65932248158293 155.22243161516192 C 494.0216951167123 153.96976900350097 493.1625 152.95726900350098 492.75 152.97243161516192 Z " class="odd" fill="#000000"></path><path d="M 162.5 156 C 162.225 156 162 156.45 162 157 C 162 157.55 162.45 158 163 158 C 163.55 158 163.775 157.55 163.5 157 C 163.225 156.45 162.775 156 162.5 156 Z " class="odd" fill="#000000"></path><path d="M 65 175.5 C 64.45 175.225 63.509733889080636 176.2375 62.91051975351252 177.75 C 62.291275018373014 179.31306002529547 61.96756411618087 184.691656822142 62.16051975351252 190.21157472707068 C 62.401189899909745 197.09647049197895 62.936594328149965 200.3853000650865 64 201.51095275739368 C 65.22574563326882 202.80844806769457 65.72268393347102 202.86118266141224 66.71794195727037 201.799378030323 C 67.59949163939217 200.8588846983136 67.66828981657878 199.53330946438632 66.96703265515364 197 C 66.43416446249074 195.075 65.99859058171907 189.5625 65.99909069788328 184.75 C 65.99959307894193 179.9157054543737 65.55249080521443 175.77624540260723 65 175.5 Z " class="odd" fill="#000000"></path><path d="M 54.71730483434848 176.27380952380952 C 54.597787175456816 176.14940476190475 53.707142857142856 176.82440476190476 52.73809523809524 177.77380952380952 C 51.27357614370456 179.20864242034094 50.977568904820515 179.24682031008936 50.984357177657685 178 C 50.98884886346465 177.175 50.0942060063218 177.9625 48.996261939562444 179.75 C 47.898317872803105 181.5375 46.3316514890132 185.8125 45.51478108669599 189.25 C 44.69791068437878 192.6875 44.01922466498682 198.2 44.00658993249162 201.5 C 43.99395519999643 204.8 44.53844072684734 210.2 45.21655776993809 213.5 C 45.894674813028836 216.8 47.8108608324208 221.71311339264275 49.47474892414245 224.41802976142836 C 51.138637015864106 227.12294613021396 54.233879886132286 230.72294613021396 56.35306641362731 232.41802976142836 C 59.53962274655471 234.96687546698908 61.26944001194789 235.55753802971742 66.35306641362732 235.83262490130332 C 70.0531097362159 236.0328428681482 73.65332908199389 235.63477605493117 75.39732538282483 234.83262490130332 C 76.99085434337849 234.0996812055865 80.0283543433785 231.5875 82.14732538282483 229.25 C 84.26629642227117 226.9125 86.9 223.2 88 221 C 89.1 218.8 90.67726169424917 214.4125 91.50502598722039 211.25 C 92.3327902801916 208.0875 93.01543273654414 202.8 93.02200922355938 199.5 C 93.02858571057462 196.2 92.46382401632545 192.67634606661272 91.766983236339 191.66965792580606 C 90.98481449026521 190.53970109291606 89.58175845267573 189.9657221210244 88.10032616448112 190.16965792580606 C 86.78050555494573 190.35134606661273 84.90258862847355 191.625 83.92717743898737 193 C 82.95176624950119 194.375 81.8941194754847 196.9625 81.57685127450625 198.75 C 81.2595830735278 200.5375 81.3375 202.00753485920197 81.75 202.0167441315599 C 82.1625 202.02595340391784 83.5125 200.00095340391786 84.75 197.5167441315599 C 85.9875 195.03253485920195 87.5625 193.15568401516992 88.25 193.3459644781554 C 89.11219373916572 193.58459520378685 89.48477109963763 195.9889940209594 89.45091331065154 201.0959644781554 C 89.41472834189129 206.5539572174074 88.9068929046165 209.28850625858738 87.51877099062258 211.5 C 86.48309039374831 213.15 84.48017940395512 215.77871226719213 83.06785767997104 217.3415828159825 C 81.65553595598698 218.90445336477285 78.7 221.13373062368032 76.5 222.29553228022127 C 73.64549723711261 223.80297138864097 70.6188301573683 224.42108661884808 65.93108029706475 224.4539494642388 C 60.52552596657381 224.49184438216483 58.665960472843246 224.04662881692806 55.43108029706475 221.94004852837674 C 52.92678339662636 220.309230012549 50.625509686238196 217.58710920451364 49.09060019163984 214.44004852837674 L 46.68120038327967 209.5 L 47.25923135808131 199 C 47.5771483942222 193.225 48.4850601238777 186.475 49.276812979537965 184 L 50.716363626193 179.5 L 50.1081818130965 192.2544167265616 L 49.5 205.0088334531232 L 51.5 205.0086954238436 L 53.5 205.00855739456398 L 54.21730483434848 190.754278697282 C 54.611822493240155 182.91442541377688 54.836822493240156 176.3982142857143 54.71730483434848 176.27380952380952 Z " class="odd" fill="#000000"></path><path d="M 59.017519550681655 176.25 C 58.457883797806744 176.1125 57.55 177.125 57 178.5 C 56.45 179.875 56.006890748532676 185.6125 56.015312774517064 191.25 C 56.02373480050145 196.8875 56.36123480050145 202.1097827103056 56.765312774517064 202.85507268956803 C 57.16939074853268 203.60036266883048 58.175 204.0131648701753 59 203.7724109147788 C 60.25238468140373 203.4069362896564 60.46162285298309 201.11978413085515 60.267519550681655 189.91733822521073 C 60.12761658492301 181.84300158401027 59.62984632170764 176.40044594735693 59.017519550681655 176.25 Z " class="odd" fill="#000000"></path><path d="M 70.5 176.30093178806345 C 69.95 176.10268120939048 69.15 176.29136904761907 68.72222222222223 176.7202380952381 C 68.29444444444444 177.14910714285713 67.952186479989 179.525 67.96164896787678 182 C 67.97111145576457 184.475 68.43191471440755 188.975 68.98565620930563 192 C 69.53939770420372 195.025 70.55665566865918 198.52490577317712 71.24622946365108 199.77756838483808 C 71.93580325864298 201.03023099649903 73.0625 202.04273099649902 73.75 202.02756838483808 C 74.4375 202.01240577317714 75.225 201.55 75.5 201 C 75.775 200.45 75.27966838004409 198.3125 74.39926306676463 196.25 C 73.51885775348518 194.1875 72.50635775348518 188.9363121617714 72.14926306676463 184.58069369282538 C 71.79216838004409 180.22507522387932 71.05 176.49918236673645 70.5 176.30093178806345 Z " class="odd" fill="#000000"></path><path d="M 238.659465051114 179.23372661912921 C 235.8217592730013 179.08727625965028 232.15 179.57871402426926 230.5 180.32581054050473 C 228.85 181.07290705674018 226.1239361450368 183.21773007813204 224.442080322304 185.0920839213755 C 222.76022449957122 186.96643776461897 221.07272449957122 190.1875 220.692080322304 192.25 C 220.3114361450368 194.3125 220.42596965035608 197.6875 220.9465992230135 199.75 C 221.4672287956709 201.8125 222.9297287956709 204.8190312925363 224.1965992230135 206.43118065008065 C 225.46346965035607 208.043330007625 228.3 210.1709471074041 230.5 211.15921864958972 C 232.7 212.14749019177538 235.7375 212.96595889923907 237.25 212.97803799950907 C 238.7625 212.9901170997791 241.89264490300187 212.2125 244.2058775622264 211.25 C 246.7986040986385 210.1712069605946 249.49443235429015 207.96581266149806 251.23455831847355 205.5 C 253.50494650507625 202.28278926223155 254.0572363073955 200.42366476443163 254.05672172293723 196 C 254.05624956103725 191.9410240117574 253.45922525469513 189.60707540357478 251.77804096669007 187.0919476426007 C 250.5251184350105 185.2175188460311 248.2217592730013 182.74251884603112 246.659465051114 181.5919476426007 C 244.82638561943887 180.24195327013342 241.98901720725036 179.40556054001382 238.659465051114 179.23372661912921 Z " class="odd" fill="#000000"></path><path d="M 266.25 185.98809523809524 C 265.2875 185.98154761904763 263.70652229547744 186.76904761904763 262.73671621217215 187.73809523809524 C 261.7669101288668 188.70714285714286 259.64621772155516 193.55 258.0240664181463 198.5 C 256.40191511473733 203.45 254.1578928192599 208.7375 253.03735020597412 210.25 C 251.91680759268834 211.7625 249.3125 213.8350408546013 247.25 214.85564634355842 C 245.1875 215.87625183251552 242.0375 217.00125183251552 240.25 217.35564634355842 C 238.3533055481814 217.7316900374605 234.9179914643363 217.37539743930088 232 216.5 C 229.25 215.675 225.41012274972107 213.5375 223.4669394438246 211.75 C 221.52375613792813 209.9625 219.70564142652475 208.725 219.42668452959487 209 C 219.147727632665 209.275 220.17510488294394 211.01475144133633 221.7097450857703 212.86611431408073 C 223.24438528859662 214.71747718682514 226.075 217.1759585325603 228 218.32940619349216 C 230.56994509149337 219.86930081920977 233.22724483008378 220.43633820674728 238 220.46329187941143 C 243.31432696227319 220.49330402633115 245.36645337372343 219.9983690994233 249.25 217.75 C 251.8625 216.2375 255.06791636064588 213.5375 256.373147468102 211.75 C 257.6783785755581 209.9625 260.0278758364018 204.675 261.5942524921992 200 C 263.16062914799653 195.325 264.9052127873506 191.0373724489796 265.47110502409714 190.4719387755102 C 266.03699726084375 189.90650510204082 267.1469199245615 189.2315051020408 267.93759983235884 188.9719387755102 C 268.73768951171684 188.70928338624586 269.0702804066156 187.9456818418353 268.68759983235884 187.25 C 268.30941992456144 186.5625 267.2125 185.99464285714285 266.25 185.98809523809524 Z " class="odd" fill="#000000"></path><path d="M 406.5 197.03841242037294 C 402.13070981837086 197.03439880453297 399.42487099136935 197.63994604478344 396.5441925478633 199.266450419882 C 394.3684984491881 200.4949026889469 391.5433800141776 203.075 390.26615158117323 205 C 388.84767635910686 207.13788288133765 387.9548309468348 209.9594111985668 387.97195903330993 212.25 C 387.98738156498945 214.3125 388.62114249691524 217.2375 389.3803166598116 218.75 C 390.139490822708 220.2625 392.61449082270804 223.1875 394.8803166598116 225.25 C 398.31841947590334 228.37958169249833 399.9513080715026 229.10183427513246 404.75 229.6155178322905 C 407.9125 229.95405264005026 413.65 229.74977839318555 417.5 229.16157506148002 C 421.35 228.5733717297745 430.575 226.268831957464 438 224.0403755674567 C 445.425 221.8119191774494 453.3 220.00107632453503 455.5 220.0162803387581 C 457.7 220.03148435298115 461.4125 220.93404110076094 463.75 222.02196200049093 C 466.0875 223.10988290022092 468.77685310820266 225.2375 469.7263402404503 226.75 C 470.7931954264103 228.4494632301594 471.4731645162742 231.60107353968118 471.50630173328733 235 L 471.55992298567395 240.5 L 445.02996149283695 241 L 418.5 241.5 L 418.25 244.25 L 418 247 L 429.5 247 C 436.1666666666667 247 441.21014492753625 247.42028985507247 441.5 248 C 441.775 248.55 440.875 249 439.5 249 C 438.125 249 435.84748749500017 250.0125 434.4388611000004 251.25 C 432.8381224868289 252.65627354480316 431.61940649598904 255.05706263147837 431.1888611000004 257.6522828865298 L 430.5 261.8045657730596 L 434.5 265.85816523947096 C 436.7 268.0876449459972 439.0625 269.9316176470588 439.75 269.95588235294116 C 440.4375 269.98014705882355 442.2960931663066 268.7625 443.8802070362369 267.25 C 445.46432090616725 265.7375 447.0877144954415 262.925 447.48774834573527 261 C 448.0248303342513 258.4155116444919 447.65732742202306 256.1921262221544 446.08278512048594 252.5 C 444.91002149630503 249.75 443.9616279070308 247.3875 443.9752438109876 247.25 C 443.9888597149444 247.1125 445.575 247 447.5 247 L 451 247 L 451.1508001198684 260.75 C 451.233740185796 268.3125 451.2172617963366 275.85 451.11418147662516 277.5 C 451.0111011569138 279.15 451.61824110297306 281.5125 452.4633813567568 282.75 C 453.30852161054054 283.9875 454.45 285 455 285 C 455.55 285 456 283.875 456 282.5 C 456 281.125 455.55 279.775 455 279.5 C 454.3622188341206 279.1811094170603 454.344169489567 278.54722645734927 454.9501700550789 277.75 C 455.4727635853723 277.0625 456.0352635853723 269.975 456.2001700550789 262 L 456.5 247.5 L 458.5 247.5 C 460.1968459756952 247.5 460.5759432208104 248.33367356683806 461.0010207005142 253 C 461.28697468744707 256.13908572343803 462.46743182572806 260.1097142794741 463.7510207005142 262.25 C 464.98795931523136 264.3125 466.9 266.45 468 267 C 469.1 267.55 470.7875 268.01466763099575 471.75 268.0325947355461 C 472.7125 268.0505218400965 474.4 267.10281849054036 475.5 265.926587292088 C 477.15772457926937 264.15398059338094 477.5 262.4084510534158 477.5 255.72702615364017 C 477.5 250.1225435712043 477.88092185888905 247.56457937269315 478.75 247.33303359709825 C 479.4375 247.1498651186942 480.19656584678125 247.3375 480.4368129928472 247.75 C 480.6770601389132 248.1625 480.9433477739915 255.7 481.0285632930212 264.5 C 481.14289108708596 276.3063540447212 481.5526068914541 281.0897314624611 482.591750300174 282.75 C 483.3662876350783 283.9875 484.45 285 485 285 C 485.55 285 486 283.875 486 282.5 C 486 281.125 485.55 279.775 485 279.5 C 484.3622188341206 279.18110941706027 484.344169489567 278.54722645734927 484.95017005507896 277.75 C 485.4727635853723 277.0625 486.0352635853723 269.9806201665126 486.20017005507896 262.01248925891696 C 486.4670793950909 249.11567226041436 486.6921457798559 247.49615783020056 488.25 247.26248925891696 C 489.2236804466904 247.11644316813198 491.54063605830174 248.66354189994905 493.4729424120959 250.75 C 495.38306073874867 252.8125 496.95806073874866 255.2875 496.9729424120959 256.25 C 496.98782408544315 257.2125 495.66882411398456 259.4625 494.0418313644101 261.25 C 492.4148386148356 263.0375 491.0532672265937 264.95 491.01611716831684 265.5 C 490.97896711004 266.05 491.97264299605547 267.4849542096253 493.22428580390675 268.6887871325007 C 494.47592861175804 269.8926200553761 497.975 271.8322908020198 501 272.99916656948676 C 504.025 274.1660423369537 507.7375 276.2185881273284 509.25 277.56037943698607 C 510.7625 278.9021707466437 512.728930903432 281.6875 513.6198464520712 283.75 C 514.6686079185428 286.177918704418 515.2369758155837 290.3204400972416 515.2319860542466 295.5 C 515.2277472868041 299.9 515.736316383372 304.2889924681873 516.3621396021755 305.25331659597174 C 516.987962820979 306.2176407237562 518.0625 307.0051407237562 518.75 307.00331659597174 C 519.6388011138573 307.0009583606166 519.9873167686725 304.9050464603727 519.956107175942 299.75 C 519.9319661227102 295.7625 519.2478406023013 290.7 518.4358282417002 288.5 C 517.3283224339748 285.4994141773996 516.9721673228087 280.00263620170176 517.0103727329829 266.5 C 517.0383845637896 256.6 517.4811568136689 248.05 517.9943110660483 247.5 C 518.5074653184276 246.95 519.6186720681765 246.8375 520.4636593988236 247.25 C 521.7184279447713 247.86254412513745 522 250.19929399780088 522 260 C 522 266.6 522.45 272.9 523 274 L 524 276 L 523 276 C 522.45 276 522 276.9 522 278 C 522 279.1 522.675 281.125 523.5 282.5 C 524.325 283.875 525.45 285 526 285 C 526.55 285 527 283.875 527 282.5 C 527 281.125 526.55 279.775 526 279.5 C 525.3622188341205 279.18110941706027 525.344169489567 278.54722645734927 525.950170055079 277.75 C 526.4727635853724 277.0625 527.0352635853724 269.975 527.200170055079 262 L 527.5 247.5 L 534.25 247.25 L 541 247 L 541.0286807562472 249.25 C 541.0444551721832 250.4875 539.6944551721832 253.4125 538.0286807562472 255.75 C 536.3629063403113 258.0875 534.55 260.225 534 260.5 C 533.45 260.775 532.55 261.9 532 263 C 531.2159033325703 264.5681933348594 531.4857824982831 265.5605770679784 533.25 267.59642619363416 C 535.1691442805887 269.8110557400714 536.0146644524175 270.0919754943632 539 269.5068342962396 C 540.925 269.1295243461738 543.9625 269.08613255903845 545.75 269.41040810260546 C 548.1417294722643 269.84429866186906 549.2452795533488 270.72622890808407 549.9287963673726 272.75 C 550.5694713975226 274.64692422882393 550.4919190546884 275.88768424348655 549.6787963673726 276.7497502632365 C 548.7694546778448 277.71382688182354 548.9000230228733 278.7996036581938 550.25 281.4997502632365 C 551.2125 283.4248876184564 552.45 285 553 285 C 553.55 285 554.0074999999999 283.7625 554.0166666666667 282.25 C 554.0258333333334 280.7375 553.4633333333334 278.93 552.7666666666667 278.23333333333335 C 551.7624624624624 277.2291291291291 551.759009009009 276.9701201201201 552.75 276.98333333333335 C 553.6831224582015 276.99577496610937 554.0633755083597 273.26084500677814 554.25 262.25 L 554.5 247.5 L 565.75 247.25 L 577 247 L 576.75 244.25 L 576.5 241.5 L 539.25 241.25 L 502 241 L 499.25 239.16272516433702 C 497.7375 238.15222400472237 495.7125 237.02722400472237 494.75 236.66272516433702 C 493.5940607182694 236.22497084979503 492.1513418310437 236.84865816895635 490.5 238.5 C 488.43939393939394 240.56060606060606 487.03333333333336 241 482.5 241 L 477 241 L 476.4101881077479 238.25 C 476.08579156700927 236.7375 475.314683890487 233.925 474.696615493254 232 C 474.078547096021 230.075 471.3064624475344 226.0809783915922 468.53642738550604 223.12439642576044 C 465.76639232347776 220.1678144599287 462.15 217.04297973904855 460.5 216.18031926824904 C 458.536524930136 215.15376634208414 455.0814418296827 214.64496246650796 450.5 214.70769513510032 C 445.6982950299847 214.77344381810457 441.144683896445 215.6320021287662 436 217.44159030961345 C 431.875 218.89251545802793 424.5625 220.96171792635263 419.75 222.03981801700172 C 414.9375 223.11791810765078 408.3 224 405 224 C 401.7 224 397.875 223.55 396.5 223 C 395.125 222.45 393.55 220.875 393 219.5 C 392.27103108879345 217.67757772198368 392.39603817648424 215.9836334170245 393.46122785488296 213.25 C 394.2992556608781 211.09934001772532 396.53833168569355 208.34901404456988 398.71122785488296 206.8012634680387 C 400.79505253469733 205.31695837546 404.3 203.68441926868812 406.5 203.1733987863234 C 408.9253472327601 202.61003418960206 412.4683159590499 202.60130597461696 415.5 203.15122700301555 C 418.7407720201329 203.73907476618757 421.47505341428723 205.01552297723663 423.27125371312286 206.77909168473087 C 424.7954432553404 208.27559125812888 426.0329432553404 209.1625 426.02125371312286 208.75 C 426.00956417090526 208.3375 424.7625 206.3510682153392 423.25 204.33570714519823 C 421.7375 202.32034607505727 418.7 199.85522897527818 416.5 198.85766914568916 C 414.0687648122075 197.7552588913141 410.1468527816887 197.0417624075521 406.5 197.03841242037294 Z " class="odd" fill="#000000"></path><path d="M 267 214 C 266.45 214 265.2667462480141 215.2375 264.37054721780913 216.75 C 263.47434818760416 218.2625 261.56184818760414 220.77871226719213 260.12054721780913 222.3415828159825 C 258.6792462480141 223.90445336477285 255.7 226.0960533730513 253.5 227.2118050566012 C 251.3 228.32755674015112 247.25 229.45856713711106 244.5 229.72516149428995 C 240.96407270757933 230.06794631740055 237.59670548014685 229.57165402801803 233 228.03025834223587 C 229.425 226.83146725142723 225.4875 225.20924458727515 224.25 224.4253190885646 C 223.0125 223.6413935898541 221.6625 223.2451126881954 221.25 223.54469486265646 C 220.8375 223.8442770371175 221.85 225.18251010909935 223.5 226.5185461337272 C 225.15 227.85458215835504 228.975 229.89116962088616 232 231.044296050463 C 235.30905896094478 232.3057054206757 239.89011749715115 233.15276948821594 243.5 233.17071218326788 C 247.7698937067943 233.19193542270148 250.79757971990426 232.55137334353964 254 230.9492460860319 C 256.475 229.71103728908628 259.78249758381423 227.75341695734224 261.3499946306983 226.5989786821563 C 262.91749167758235 225.44454040697033 265.05499167758234 222.8125 266.0999946306983 220.75 C 267.14499758381424 218.6875 268 216.325 268 215.5 C 268 214.675 267.55 214 267 214 Z " class="odd" fill="#000000"></path><path d="M 248.25 241.04389282405782 C 244.5375 241.06803387728962 239.7 241.74727643578194 237.5 242.55332073181853 C 235.3 243.35936502785515 233.275 244.20732629786067 233 244.4376791096086 C 232.725 244.66803192135654 234.525 245.12404989846775 237 245.45105239207794 C 239.475 245.7780548856881 243.975 247.20543839339152 247 248.6230157425299 C 250.025 250.0405930916683 253.85 252.23654451818993 255.5 253.50290780146682 C 257.15 254.7692710847437 259.8186382806309 258.21167453620876 261.43030729029095 261.15269324916693 C 263.6553345325731 265.21298523044277 264.4629969313883 268.18479270157763 264.7859941866152 273.5 C 265.11343586601834 278.8883442537275 264.7086562319148 281.9965374786816 263.02789079184356 287 C 261.8269751414009 290.575 259.41691603805504 295.700317221282 257.6722038955194 298.3895938250711 C 255.87289289918095 301.1630283919681 251.4704815293112 305.5404156894989 247.5 308.5039771434699 C 243.65 311.3776113648001 237.35 315.3016766262047 233.5 317.2241221688135 C 229.65 319.1465677114223 223.8 321.6434961097776 220.5 322.7728519429364 C 217.2 323.9022077760952 210.675 325.54617551341966 206 326.4261135814351 C 201.325 327.3060516494506 193.675 328.0245343996527 189 328.0227419152176 C 184.325 328.02094943078254 178.25 327.3629921591553 175.5 326.56061464493484 C 172.75 325.75823713071446 168.5875 323.7288534888776 166.25 322.0508732186307 C 163.9125 320.3728929483838 161.1 317.425 160 315.5 C 158.9 313.575 157.55 312 157 312 C 156.38173645725666 312 156.23622821551433 314.00411640059747 156.61882539910386 317.25 C 156.95917936861096 320.1375 157.84216656776215 324.075 158.5810191749954 326 C 159.38841378130323 328.1035787137067 161.0366595384705 329.99749032204994 162.71219377589154 330.746913194654 C 164.2454871991512 331.43271545171365 167.975 332.44997341616914 171 333.00748644899943 C 174.025 333.5649994818297 181.9 334.0222387642465 188.5 334.02357374325885 C 195.1 334.0249087222712 204.1 333.3532761392523 208.5 332.5310568921056 C 212.9 331.7088376449589 219.425 330.0883516237102 223 328.92997684488614 C 226.575 327.7716020660621 232.2 325.54651503817814 235.5 323.985339005144 C 238.8 322.42416297210985 244.875 318.9358384557374 249 316.23350674653847 C 253.6259465589938 313.2029995777073 257.8412249391362 309.4534681457213 260 306.4488989383934 C 261.925 303.7696963531125 264.5564600858813 299.7601566707228 265.84768907973626 297.538810755305 C 267.1389180735912 295.31746483988724 269.5504416589781 290.125 271.20663038059604 286 C 273.3397352355289 280.6871649276768 274.3657326315135 276.16702407714473 274.72487464855715 270.5 C 275.0086801228347 266.0217368627709 274.74061374452197 260.62907729165295 274.1159333476973 258.25 C 273.40536859836527 255.54383462651 271.45616537349 252.44749844120878 268.75 249.72614092755617 C 266.4125 247.3755184377121 262.3625 244.45051843771208 259.75 243.22614092755617 C 256.2605973160863 241.59079311126467 253.2086248666142 241.01164866867427 248.25 241.04389282405782 Z " class="odd" fill="#000000"></path><path d="M 498 242 C 498.55 242 499.675 242.675 500.5 243.5 C 501.325 244.325 502.00745168896094 245.5625 502.0165593088021 246.25 C 502.0256669286432 246.9375 501.5336049556346 249.075 500.9230882576718 251 L 499.8130578977395 254.5 L 497.3147065573752 252 C 495.94061332017486 250.625 494.4076752931835 248.7125 493.90817760850547 247.75 C 493.24868382138885 246.4791977729408 493.54765459764667 245.45234540235336 495 244 C 496.1 242.9 497.45 242 498 242 Z " class="even" fill="#ffffff"></path><path d="M 53.75 247.51702884765353 L 50 245 L 47.75 249.25 C 45.757821369785226 253.01300407929457 45.503071595226665 254.93234094325126 45.52680572702624 266 L 45.553611454052486 278.5 L 48.27680572702624 284.75 C 49.77456257716181 288.1875 52.667807656439734 293.5875 54.70623923653274 296.75 C 56.74467081662575 299.9125 61.383707321092864 305.875 65.01520924645966 310 C 68.64671117182647 314.125 74.96640351538673 320.23341218461564 79.05897000992692 323.5742492991459 C 83.15153650446712 326.91508641367614 89.2 331.4546259051515 92.5 333.66211483575785 C 95.8 335.8696037663642 101.425 339.2956600168421 105 341.2755731701532 C 108.575 343.25548632346437 115.1 346.310255353832 119.5 348.06394879319254 C 125.13894303294914 350.3114436572404 129.27079272528815 351.28172797383854 133.5 351.35157575057207 C 137.97602240393465 351.42549982031295 140.21390378320135 350.94894157162554 142.31068613493207 349.4753345909208 C 143.8565635091447 348.38890056591435 145.9940635091447 345.5875 147.06068613493207 343.25 C 148.12730876071944 340.9125 149.3375 335.2875 149.75 330.75 C 150.1625 326.2125 150.3875 319.9125 150.25 316.75 C 150.1125 313.5875 149.55 311 149 311 C 148.45 311 148 312.125 148 313.5 C 148 314.875 147.28726138124514 319.4875 146.41613640276697 323.75 C 145.5450114242888 328.0125 144.02414733422992 332.85 143.03643842485837 334.5 C 142.04872951548683 336.15 139.7239681342417 338.06995168896094 137.8703020220914 338.766559308802 C 136.01663590994113 339.46316692864315 131.2375 340.02566692864315 127.25 340.016559308802 C 121.92195942714025 340.00438983719437 118.21058949886942 339.3205519884023 113.25 337.4369916375327 C 109.5375 336.0273370381757 103.80423329031794 333.2148370381757 100.50940731181763 331.1869916375327 C 97.21458133331731 329.1591462368897 90.52623842680067 323.675 85.64642307511397 319 C 80.76660772342726 314.325 74.62756744987121 307.575 72.00411135610052 304 C 69.38065526232984 300.425 65.66881781615298 294.35 63.75558369792975 290.5 C 61.8423495797065 286.65 59.702759991784724 281.025 59.00094016921468 278 C 58.299120346644635 274.975 57.92543248785497 269.575 58.17052270523764 266 C 58.4602535593532 261.77385089244126 59.38292905595745 258.1881629466685 60.80807064114852 255.75 C 62.01363178851683 253.6875 63 251.775 63 251.5 C 63 251.225 61.7625 250.7826629814441 60.25 250.51702884765353 C 58.7375 250.25139471386296 55.8125 248.90139471386297 53.75 247.51702884765353 Z " class="odd" fill="#000000"></path><path d="M 470.5 247.178931631269 C 472.10780179247587 247.4370387806455 472.55098198064206 248.38244596692934 472.7599806917216 252 C 472.90297007216844 254.475 472.4417057513639 257.625 471.73494886771147 259 C 471.02819198405905 260.375 469.4487006727843 261.6125 468.2249681759899 261.75 C 466.645158727618 261.9275092184935 465.82762150712483 261.34758296644185 465.40551581424256 259.75 C 465.07854951207594 258.5125 465.1294286567184 255.7 465.51858058011464 253.5 C 465.90773250351094 251.3 466.7377503871018 248.90551923407105 467.36306476587214 248.178931631269 C 467.98837914464247 247.4523440284669 469.4 247.00234402846692 470.5 247.178931631269 Z " class="even" fill="#ffffff"></path><path d="M 509.5 247 L 512 247 L 511.96541459816217 259.75 L 511.9308291963242 272.5 L 514.1887000903198 275.5 C 515.958386504459 277.8513564289864 516.0388105337705 278.1756782144932 514.5606641376282 277 L 512.6747572909411 275.5 L 512.2501144921454 277 C 511.9099796484753 278.2014857356631 511.5774525382251 278.1019809808841 510.5792038357207 276.5 C 509.89375651402486 275.4 506.99509455697176 272.925 504.1377328200473 271 C 501.2803710831228 269.075 498.9354240800707 267.275 498.9267394799315 267 C 498.9180548797923 266.725 499.6613338920284 265.825 500.57847061823384 265 C 501.49560734443935 264.175 503.14517314608906 261.7 504.2441723996776 259.5 C 505.34317165326615 257.3 506.23197172371925 253.925 506.21928366735114 252 C 506.206595610983 250.075 506.3770662173148 248.1625 506.5981072369773 247.75 C 506.8191482566398 247.3375 508.125 247 509.5 247 Z " class="even" fill="#ffffff"></path><path d="M 546 247 C 546.55 247 547.5625 247.2318644458954 548.25 247.51525432421204 C 549.1567877351109 247.88903536553875 549.3983836783351 250.42880612571756 549.1299071592846 256.76525432421204 C 548.926356096891 261.5693644458954 548.701356096891 265.6091557162518 548.6299071592846 265.74256825833726 C 548.558458221678 265.8759808004227 547.0375 265.53848080042275 545.25 264.99256825833726 C 543.4625 264.44665571625177 542 263.775 542 263.5 C 542 263.225 542.9737582679414 261.3125 544.163907262092 259.25 C 545.8763937447087 256.2823015120326 546.1893143495216 254.61339161969642 545.663907262092 251.25 C 545.2563038966869 248.64072849193863 545.3860537628091 247 546 247 Z " class="even" fill="#ffffff"></path><path d="M 87.25 247.98951362085452 C 86.5625 247.99528112938452 86 248.45 86 249 C 86 249.55 84.2 250.675 82 251.5 C 79.8 252.325 75.525 253 72.5 253 L 67 253 L 65.44911951106043 258.25 C 64.59613524214367 261.1375 63.62769572594304 266.425 63.297031697281255 270 C 62.942482693543575 273.83323427556337 63.19114747308467 278.55135824956665 63.903129582898316 281.5 C 64.5671474486495 284.25 66.50407801756867 289.2 68.20741973605205 292.5 C 69.91076145453542 295.8 72.96689779829447 300.75 74.99883383329436 303.5 C 77.03076986829424 306.25 81.36334556812312 310.975 84.62677983291408 314 C 87.89021409770504 317.025 93.02172992544112 321.1306291901357 96.03014833899428 323.12362042252386 C 99.03856675254742 325.116611654912 104.875 328.44465424413215 109 330.5192706207909 C 114.60570688566648 333.3385897257006 118.14172069908905 334.4169303797847 123 334.7887022332667 C 126.575 335.06227324346963 130.7375 334.99673065424946 132.25 334.64305203499964 C 133.7625 334.2893734157498 136.4244379323873 332.5375 138.16541762752732 330.75 C 139.90639732266735 328.9625 142.14651442244644 325.7 143.14345562703642 323.5 C 144.14039683162636 321.3 144.96595889923907 317.3625 144.97803799950907 314.75 C 144.9901170997791 312.1375 144.55 309.1 144 308 C 143.25 306.5 142 306 139 306 C 136.8 306 132.6375 305.5010830029117 129.75 304.891295562026 C 126.8625 304.28150812114035 121.84001636853719 302.3690081211403 118.588925263416 300.641295562026 C 115.10468620130071 298.78968224454906 110.44312003356906 295.036655397589 107.23468884070246 291.5 C 104.24094991333124 288.2 100.33897645566762 283.25 98.5636367125611 280.5 C 96.78829696945458 277.75 94.36020335967567 272.6875 93.16787313527462 269.25 C 91.97554291087359 265.8125 90.4375 259.6202811293845 89.75 255.48951362085452 C 88.96974349341768 250.8014289289136 88.03025650658232 247.98296796840754 87.25 247.98951362085452 Z " class="odd" fill="#000000"></path><path d="M 238 250.5538080772946 C 234.425 250.31254434954823 230.15 250.43101782121371 228.5 250.81708245877346 L 225.5 251.51901816342752 L 224.90163491304716 256.50950908171376 C 224.5725341152231 259.2542790867712 223.26310025898553 264.65 221.99178189918587 268.5 C 220.72046353938623 272.35 218.51472782851502 277.39942819648024 217.09014698613873 279.7209515477339 C 215.66556614376242 282.04247489898745 212.025 285.9795646878379 209 288.47003996740153 C 205.975 290.96051524696514 201.025 294.3124173842608 198 295.91871138361415 C 194.975 297.5250053829675 189.35 300.0194955334302 185.5 301.46202282908683 C 181.65 302.9045501247435 174.45 304.7510126811851 169.5 305.5652729545127 C 164.55 306.37953322784034 160.3875 307.2604532885272 160.25 307.52287308937235 C 160.1125 307.78529289021753 160.39749595361644 308.7875 160.88332434136984 309.75 C 161.36915272912324 310.7125 163.50665272912326 313.1021304864855 165.63332434136984 315.0602899699678 C 167.75999595361642 317.0184494534501 172.2 319.6780433915169 175.5 320.9704987212273 C 180.2307475030616 322.8233107890595 183.40387874540758 323.31811200355935 190.5 323.3095189667341 C 197.11802879831473 323.30150487521377 202.14663466853918 322.58359222106566 209.5 320.5969698465931 C 215.17891020950373 319.0627267379919 223.34895828302854 315.8654183551117 228.40737862354507 313.1976596311184 C 234.1989201537874 310.14326035177834 239.91928474909054 306.05137166893684 244.76043296794833 301.5 C 250.451258503712 296.1498101389575 253.06564696292517 292.7447252271935 255.8530543444033 287.05252279064706 C 259.0235000896224 280.57811251398886 259.5 278.6626808318172 259.5 272.39255098424644 C 259.5 265.96449051465356 259.1678585132951 264.70803298622883 256.44611874411027 260.8400281935993 C 254.7664840533709 258.4530126871197 251.3914840533709 255.2608056151057 248.94611874411027 253.7462347002349 C 245.64554931505592 251.70198125440973 242.82526502857638 250.87944763761865 238 250.5538080772946 Z " class="odd" fill="#000000"></path><path d="M 442 255 C 442.55 255 443 255.225 443 255.5 C 443 255.775 442.325 257.35 441.5 259 C 440.675 260.65 439.1 262.45 438 263 C 436.38122258644523 263.8093887067774 435.9993684760799 263.6664302368604 435.996686849402 262.25 C 435.9948646165731 261.2875 437.1198646165731 259.2625 438.496686849402 257.75 C 439.8735090822309 256.2375 441.45 255 442 255 Z " class="even" fill="#ffffff"></path><path d="M 93.5 256 C 93.225 256 93 256.225 93 256.5 C 93 256.775 94.10394573295868 260.4875 95.45321273990817 264.75 C 96.80247974685764 269.0125 99.72747974685765 275.3125 101.95321273990817 278.75 C 104.17894573295867 282.1875 108.1375 287.03317203010323 110.75 289.5181600668961 C 113.3625 292.00314810368894 118.2 295.3432101371658 121.5 296.9405201412891 C 124.8 298.53783014541233 130.9875 300.5546581153091 135.25 301.42236007439294 C 139.53136246268298 302.29390179789283 147.92322747232095 303 154 303 C 160.0890060738286 303 168.4600184479844 302.2945671595523 172.75 301.419920414975 C 177.0125 300.55087664321127 183.875 298.4819633719564 188 296.82233536774186 C 192.125 295.1627073635274 197.975 292.12349891790444 201 290.06853882191314 C 204.025 288.01357872592183 208.1121605286419 284.34499199717675 210.08257895253757 281.9161238691463 C 212.05299737643327 279.4872557411158 214.58592195336146 275.925 215.71130023460023 274 C 216.83667851583903 272.075 218.22160263568364 268.925 218.7889093898105 267 C 219.35621614393733 265.075 220.08579156700912 262.2625 220.41018810774784 260.75 C 220.73458464848653 259.2375 220.6625 258.00699709504204 220.25 258.0155491000934 C 219.8375 258.0241011051448 218.375 260.3794962578786 217 263.249760550613 C 215.56766484236445 266.2397099747508 211.29700547290662 271.7310849973664 207 276.10813802245707 C 202.1727365521434 281.0253270301448 197.3618107582853 284.81714511917244 193.5 286.7484069426771 C 190.2 288.39871153201824 184.125 290.52851484282854 180 291.48130318892214 C 175.875 292.43409153501574 167.55 293.43972241813776 161.5 293.7160384847489 C 152.2143078763298 294.14013533158754 148.7856921236702 293.83401908065554 139.5 291.751817934435 C 131.9967581674071 290.0693091309857 125.7979595979127 287.9005784611538 120 284.9294881575262 C 114.76823355818512 282.24853630133924 109.5775096716558 278.62562468672 106.5 275.5070438382885 C 103.75 272.7203434707239 99.8125 267.1912448203781 97.75 263.220157948631 C 95.6875 259.2490710768839 93.775 256 93.5 256 Z " class="odd" fill="#000000"></path><path d="M 157.5 331.7685272989591 L 154.5 330.20719975628066 L 154.36928227306834 335.35359987814036 C 154.29738752325594 338.18411994516316 153.4420240936689 342.525 152.46847465176378 345 C 151.49492520985868 347.475 149.64124818697792 350.9625 148.34919237869542 352.75 C 147.05713657041295 354.5375 146.2062980715133 356.7875 146.4584401589184 357.75 C 146.71058224632353 358.7125 148.51058224632354 361.1875 150.4584401589184 363.25 C 152.40629807151328 365.3125 155.125 367.45 156.5 368 C 157.875 368.55 161.025 369 163.5 369 C 167.3095238095238 369 168.53703703703704 368.462962962963 171.5 365.5 L 175 362 L 175 356.5 C 175 353.09372837298827 174.2799910434876 349.572457927508 173.10861365212992 347.25 C 172.06835116080137 345.1875 168.80585116080138 341.2117173393684 165.85861365212992 338.4149274208188 C 162.91137614345845 335.6181375022691 159.15 332.62725744743227 157.5 331.7685272989591 Z " class="odd" fill="#000000"></path><path d="M 191.75 338.0894174727773 C 191.0625 338.1385970828048 188.25 338.80491676861084 185.5 339.57012788567954 C 182.75 340.3353390027483 179.2625 340.9701011399985 177.75 340.9807104129023 C 176.2375 340.99131968580605 175 341.225 175 341.5 C 175 341.775 176.1206039879332 344.3625 177.490231084296 347.25 C 178.85985818065882 350.1375 179.98485818065882 353.2875 179.990231084296 354.25 C 179.9962603308339 355.3300770280987 180.7656262536015 356 182 356 C 183.1 356 185.2375 354.7296800285804 186.75 353.1770667301787 C 188.2625 351.62445343177694 190.5852654597504 348.36195343177695 191.9117010216675 345.9270667301787 C 193.34473279136233 343.29650547324536 194.05488350057755 340.7898492907848 193.6617010216675 339.75 C 193.2977654597504 338.7875 192.4375 338.0402378627498 191.75 338.0894174727773 Z " class="odd" fill="#000000"></path><path d="M 479 354 L 438 354 L 438 356.5 L 438 359 L 448.25 359.02196200049093 L 458.5 359.0439240009818 L 454.25 361.02196200049093 C 451.87926969453315 362.12534897244416 449.11729069050125 364.4370885899371 448.00373806043757 366.25 C 446.90579399367823 368.0375 445.9938261416442 370.85 445.97714283369527 372.5 C 445.9594259267924 374.25222422790495 447.1016656307967 377.0568455691273 448.7234047732577 379.2430897536501 C 450.25053214796594 381.3017891181576 452.625 383.25368086936425 454 383.5806269785537 C 455.8253179329078 384.014649230334 457.1099362884259 383.544236671086 458.76008781830615 381.8375372249036 C 460.0031361183745 380.5518917512066 461.2714876897975 378.375 461.5786468659127 377 C 461.88580604202787 375.625 461.42020989673773 372.7 460.54398876526795 370.5 C 459.6677676337981 368.3 458.96191606237517 366.3875 458.9754297176614 366.25 C 458.98894337294763 366.1125 461.25 366 464 366 L 469 366 L 469.15080011986845 376.25 C 469.2337401857961 381.8875 469.21726179633663 387.85 469.1141814766253 389.5 C 469.01110115691387 391.15 469.61824110297306 393.5125 470.4633813567568 394.75 C 471.3085216105406 395.9875 472.45 397 473 397 C 473.55 397 473.98862480684977 395.9875 473.9747217929995 394.75 C 473.96081877914924 393.5125 473.1733187791492 391.69783236900423 472.2247217929995 390.7174052644539 L 470.5 388.93481052890775 L 472.25 388.9674052644539 L 474 389 L 474 374 L 474 359 L 483.25 359.25 C 488.96948742083606 359.4045807411037 492.32566502259533 359.8816770355853 492.0432395424646 360.5 C 491.7920212908202 361.05 489.99202129082016 362.0436529178667 488.0432395424646 362.7081175952593 C 486.0944577941091 363.3725822726519 483.2625 365.28508227265195 481.75 366.9581175952593 C 479.4940619842202 369.45349874303616 478.9963642365896 370.94320924260217 478.97976296558346 375.25 C 478.96275078050985 379.6633922885191 479.480650792379 381.1775438581195 482.22976296558346 384.75181982703805 C 484.02839333451254 387.09032073190895 486.625 389.4970049331309 488 390.10000694086455 C 489.375 390.70300894859827 491.7375 390.92719002643116 493.25 390.59818711382655 C 494.85616361078183 390.24881025031135 496.85728735014777 388.64819335819675 498.06108166791046 386.75 C 499.7998636352492 384.0082156826517 500.0735182336001 382.2047643228051 499.81108166791046 375.2170679800371 L 499.5 366.9341359600742 L 501.5 367.2170679800371 C 503.2869429426814 367.46985966820273 503.55326426432964 368.4587567579339 504 376.5 C 504.275 381.45 504.8375 386.0625 505.25 386.75 C 505.6625 387.4375 505.55 388 505 388 C 504.45 388 503.9965205873055 389.0125 503.99226797178994 390.25 C 503.9880153562744 391.4875 504.6630153562744 393.5125 505.49226797178994 394.75 C 506.3215205873055 395.9875 507.45 397 508 397 C 508.55 397 508.93458469047556 395.5375 508.8546326455012 393.75 L 508.70926529100245 390.5 L 508.8546326455012 374.75 L 509 359 L 514.5 359 L 520 359 L 520 356.5 L 520 354 L 479 354 Z " class="odd" fill="#000000"></path><path d="M 464.75 359.07028526261035 C 466.5375 359.03162836817467 468.225 359.45 468.5 360 C 468.775 360.55 468.2125 360.96837163182533 467.25 360.92971473738965 C 466.2875 360.8910578429539 464.6 360.4726862111286 463.5 360 C 461.8239834171321 359.2797909742323 462.0264730528397 359.1291848954435 464.75 359.07028526261035 Z " class="even" fill="#ffffff"></path><path d="M 499.5 359 C 503.3333333333333 359 504 359.2962962962963 504 361 C 504 362.45524984117674 503.52334361102965 362.8447378065703 502.25 362.42996916691106 C 501.2875 362.11645220871213 499.2520833333333 361.55395220871213 497.72685185185185 361.17996916691106 C 496.2016203703704 360.80598612511 494.9641203703704 360.1625 494.97685185185185 359.75 C 494.9895833333333 359.3375 497.025 359 499.5 359 Z " class="even" fill="#ffffff"></path><path d="M 519 362.9958232840628 C 518.725 363.0315700323191 517.7125 363.49713346314616 516.75 364.03040868590074 C 515.7875 364.5636839086553 515 365.9 515 367 C 515 368.1 516.35 370.575 518 372.5 C 520.4292633301468 375.33414055183795 520.667070275919 375.9915292498021 519.25 375.95547464893014 C 518.2875 375.9309857058417 516.825 376.65304578255575 516 377.5600525971837 C 514.6609674164791 379.03218796477427 514.7146232219721 379.5970824879266 516.5 382.8241104000772 C 517.6 384.8123353770407 519.7629048836441 387.1277753003266 521.3064552969869 387.9695324518236 L 524.1129105939738 389.5 L 525.5734385333259 387.5 C 526.3767288999695 386.4 527.0263240163255 384.9375 527.016983236339 384.25 C 527.0076424563525 383.5625 525.65 381.425 524 379.5 C 521.5707366698532 376.66585944816205 521.332929724081 376.0084707501979 522.75 376.04452535106986 C 523.7125 376.0690142941583 525.0625 375.39401429415835 525.75 374.54452535106986 L 527 373 L 525.75 369.84017362048405 C 525.0625 368.1022691117503 523.375 365.8367056809232 522 364.8055882186461 C 520.625 363.77447075636906 519.275 362.96007653580654 519 362.9958232840628 Z " class="odd" fill="#000000"></path><path d="M 456.5 368 C 456.775 368 457 369.125 457 370.5 C 457 371.875 455.875 374.125 454.5 375.5 C 453.125 376.875 451.73772391216147 377.8875 451.4171642492478 377.75 C 451.096604586334 377.6125 451.0747317209761 376.375 451.3685578817858 375 C 451.6623840425955 373.625 452.824660130434 371.4875 453.95139363253804 370.25 C 455.0781271346421 369.0125 456.225 368 456.5 368 Z " class="even" fill="#ffffff"></path><path d="M 493.75 367.97195903330993 C 494.58669981808686 367.99072853069276 495.00255651893264 369.7358607640353 495.00773202821006 373.25 C 495.0125991396519 376.5547389864094 494.3856561500832 379.42631476837647 493.315696526424 381 C 492.38082438492614 382.375 491.13984497223163 383.8306092514673 490.55796449821395 384.23468722548296 C 489.97608402419627 384.63876519949855 488.2625 384.9762651994985 486.75 384.98468722548296 C 484.55859716174075 384.9968895736787 483.87644415771683 384.44140283825925 483.39172879930175 382.25 C 483.0571796389177 380.7375 483.4154628726622 377.925 484.18791376317836 376 C 484.9603646536945 374.075 487.14658669400876 371.47488156498946 489.0461849638766 370.22195903330993 C 490.94578323374446 368.9690365016304 493.0625 367.9565365016304 493.75 367.97195903330993 Z " class="even" fill="#ffffff"></path></g></svg>