<?xml version="1.0" standalone="no"?>
<!DOCTYPE svg PUBLIC "-//W3C//DTD SVG 20010904//EN"
 "http://www.w3.org/TR/2001/REC-SVG-20010904/DTD/svg10.dtd">
<svg version="1.0" xmlns="http://www.w3.org/2000/svg"
 width="563.000000pt" height="352.000000pt" viewBox="0 0 563.000000 352.000000"
 preserveAspectRatio="xMidYMid meet">

<g transform="translate(0.000000,352.000000) scale(0.100000,-0.100000)"
fill="#000000" stroke="none">
<path d="M3761 3162 c-19 -9 -48 -34 -65 -55 -28 -35 -31 -47 -35 -119 -4
-101 15 -154 83 -227 28 -30 38 -45 22 -33 -36 27 -61 28 -83 2 -10 -11 -29
-20 -43 -20 l-25 -1 28 -24 c15 -13 27 -30 27 -37 0 -8 7 -24 16 -36 14 -21
14 -24 -5 -48 -24 -31 -27 -82 -7 -109 13 -19 15 -18 21 17 8 42 40 77 55 62
7 -7 4 -26 -10 -56 -11 -25 -25 -80 -32 -121 -10 -69 -10 -78 8 -104 l19 -28
6 71 c8 83 47 178 90 220 l29 28 2 -45 c0 -24 0 -54 -1 -66 -3 -32 18 -68 31
-55 8 8 6 18 -6 36 -11 18 -12 24 -3 20 10 -4 13 15 14 83 2 161 1 153 23 153
19 0 20 -7 20 -173 0 -137 3 -177 15 -193 13 -17 14 4 15 187 l0 207 31 12
c92 38 125 193 68 314 -30 64 -98 132 -145 145 -58 16 -124 13 -163 -7z m230
-53 c91 -65 94 -273 4 -335 -15 -11 -37 -29 -50 -41 -24 -25 -92 -32 -111 -13
-6 6 -30 20 -54 33 -58 29 -82 71 -88 158 -4 60 -1 75 22 124 27 54 42 68 101
92 43 18 140 8 176 -18z m-238 -471 c-11 -18 -26 -33 -34 -33 -9 0 -15 12 -17
33 -3 31 -2 32 33 32 l37 0 -19 -32z m106 0 c0 -27 -8 -39 -44 -65 -48 -35
-72 -27 -36 11 12 13 21 36 21 54 0 29 3 32 30 32 27 0 30 -3 29 -32z"/>
<path d="M1074 2931 c-23 -10 -45 -24 -49 -31 -4 -7 3 -6 22 3 38 20 128 35
178 31 30 -3 35 -2 20 5 -35 16 -127 12 -171 -8z"/>
<path d="M1148 2870 c-77 -12 -156 -51 -218 -107 -87 -78 -78 -84 38 -26 143
71 210 87 333 79 53 -3 111 -8 130 -12 33 -5 33 -5 14 11 -60 51 -181 73 -297
55z"/>
<path d="M1143 2750 c-59 -14 -143 -61 -196 -111 l-52 -49 70 35 c103 51 211
69 365 61 69 -3 139 -9 155 -12 29 -6 29 -5 -10 20 -86 56 -231 80 -332 56z"/>
<path d="M1840 2714 c-19 -8 -65 -36 -102 -61 -51 -35 -79 -47 -117 -51 -46
-4 -49 -6 -40 -23 5 -11 28 -31 49 -45 33 -22 48 -26 85 -21 25 2 55 13 65 22
19 17 20 17 27 -1 5 -11 8 -46 7 -79 -1 -67 -14 -98 -81 -193 -42 -57 -73
-132 -73 -171 0 -9 14 9 32 39 17 30 70 93 118 140 104 101 110 116 110 278 0
79 4 121 15 141 8 16 11 31 8 35 -11 11 -67 6 -103 -10z"/>
<path d="M1253 2628 c-4 -7 -10 -51 -13 -98 -5 -80 -6 -85 -29 -88 -33 -5 -41
13 -34 83 6 66 -6 105 -33 105 -14 0 -14 -2 0 -16 9 -8 16 -24 16 -35 0 -16
-5 -19 -20 -15 -11 3 -29 9 -40 12 -11 3 -20 1 -20 -5 0 -6 18 -15 40 -21 30
-8 40 -16 40 -31 0 -16 -5 -19 -20 -15 -11 3 -30 9 -41 12 -36 10 -12 -13 26
-26 22 -7 35 -18 37 -32 8 -51 84 -49 95 2 3 17 11 30 19 30 20 0 64 22 64 33
0 9 -28 5 -64 -9 -11 -4 -16 0 -16 13 0 14 10 22 37 29 53 13 57 36 4 28 -44
-7 -50 0 -31 37 12 21 -4 27 -17 7z"/>
<path d="M421 2620 c-21 -9 -22 -12 -10 -23 32 -26 40 -49 55 -158 22 -158 36
-184 145 -254 68 -44 133 -103 161 -145 16 -25 17 -24 6 15 -12 48 -34 80
-111 163 -64 69 -82 103 -91 172 -8 56 3 77 32 61 55 -29 147 2 177 59 8 16
15 30 15 32 0 2 -20 2 -44 0 -36 -3 -63 4 -137 38 -96 45 -157 57 -198 40z"/>
<path d="M1474 2568 c17 -60 18 -215 1 -288 -51 -232 -48 -247 67 -382 45 -51
99 -120 120 -153 39 -58 40 -62 35 -127 -3 -36 -13 -81 -22 -100 -19 -36 -74
-98 -87 -98 -5 0 2 15 15 33 49 66 60 143 28 212 -23 51 -123 150 -196 194
-30 18 -101 52 -158 75 -97 40 -189 93 -200 116 -3 6 -4 5 -3 -2 5 -26 99 -85
204 -128 121 -49 164 -74 239 -137 95 -82 134 -164 114 -240 -11 -39 -49 -108
-56 -102 -2 3 1 25 6 51 26 120 -43 199 -279 321 -221 114 -288 170 -350 292
-32 64 -70 196 -84 291 l-13 89 -6 -50 c-20 -140 -2 -301 43 -394 25 -53 105
-141 165 -182 50 -35 170 -95 276 -139 86 -36 130 -68 152 -111 34 -65 5 -175
-59 -224 -101 -77 -319 -64 -408 25 -34 34 -38 43 -38 88 0 85 35 145 90 157
26 6 45 27 34 37 -10 11 -129 -12 -153 -29 -57 -42 -79 -147 -45 -218 54 -114
234 -197 388 -180 87 10 158 40 213 89 27 23 68 48 93 55 95 28 147 117 137
236 -6 84 -35 135 -137 241 -77 80 -89 97 -99 143 -12 55 -4 133 24 252 24
103 15 192 -29 277 -19 37 -31 42 -22 10z"/>
<path d="M1190 2526 c0 -8 4 -17 9 -20 11 -7 33 18 24 27 -12 12 -33 7 -33 -7z"/>
<path d="M1767 2483 c-11 -18 -82 -25 -127 -13 -23 6 -44 9 -47 6 -3 -3 7 -35
21 -72 15 -37 30 -89 33 -116 4 -30 11 -48 19 -48 16 0 104 140 113 183 8 35
-1 78 -12 60z"/>
<path d="M1430 2460 c-8 -5 -32 -7 -52 -3 -56 8 -105 -30 -122 -97 -4 -14 5
-3 19 23 30 55 53 67 117 60 29 -3 48 -1 53 7 10 16 2 21 -15 10z"/>
<path d="M963 2442 c7 -9 24 -12 57 -7 53 7 89 -14 110 -65 7 -17 15 -29 17
-26 6 6 -35 83 -49 93 -7 4 -43 10 -80 13 -54 4 -64 3 -55 -8z"/>
<path d="M755 2409 c-45 -21 -96 -24 -126 -9 -17 9 -19 7 -19 -18 0 -35 44
-105 106 -168 l48 -49 7 75 c4 41 13 101 22 133 8 31 12 57 9 56 -4 0 -25 -9
-47 -20z"/>
<path d="M1444 2416 c-3 -9 -30 -23 -60 -32 -51 -15 -94 -51 -94 -78 0 -6 6
-2 12 9 16 30 50 55 75 55 44 0 97 39 78 58 -2 3 -7 -3 -11 -12z"/>
<path d="M940 2413 c0 -19 35 -42 78 -52 24 -5 53 -17 65 -28 20 -16 20 -15
-1 9 -14 15 -40 29 -60 33 -21 4 -47 16 -59 28 -13 11 -23 16 -23 10z"/>
<path d="M1453 2381 c-6 -10 -27 -21 -45 -25 -18 -3 -48 -15 -67 -27 l-34 -20
23 -16 c28 -20 67 -4 72 28 4 26 28 38 28 14 0 -27 -55 -75 -87 -76 -15 0 -22
-3 -15 -6 33 -13 112 39 112 75 0 9 7 23 16 33 9 10 14 23 12 29 -1 5 -8 2
-15 -9z"/>
<path d="M930 2378 c0 -9 6 -21 13 -25 7 -4 17 -21 22 -38 12 -33 67 -75 99
-74 15 1 12 3 -11 10 -30 9 -83 60 -83 80 0 5 9 9 21 9 14 0 19 -5 16 -14 -13
-33 50 -75 68 -46 4 6 12 7 18 4 7 -4 1 5 -13 20 -14 15 -47 33 -77 42 -29 8
-57 23 -63 32 -9 16 -9 16 -10 0z"/>
<path d="M3940 2272 c0 -11 7 -25 15 -32 12 -10 15 -9 15 8 0 11 -7 25 -15 32
-12 10 -15 9 -15 -8z"/>
<path d="M419 2088 c-16 -29 -18 -200 -3 -205 7 -2 13 34 17 109 3 62 4 114 2
116 -2 2 -9 -7 -16 -20z"/>
<path d="M463 2093 c-16 -27 -17 -189 -2 -199 20 -12 24 11 19 116 -4 90 -7
102 -17 83z"/>
<path d="M507 2103 c-9 -8 -9 -150 -1 -181 8 -30 30 -22 26 9 -1 13 -3 59 -5
102 -2 73 -5 85 -20 70z"/>
<path d="M552 2025 c3 -60 9 -90 20 -102 24 -23 39 -8 23 23 -7 14 -16 57 -20
95 -10 101 -29 88 -23 -16z"/>
<path d="M384 2063 c-66 -156 -21 -359 90 -413 104 -50 191 2 246 149 19 50
27 152 14 185 -16 41 -67 5 -78 -54 l-7 -35 23 39 c13 21 28 37 33 35 6 -2 10
-32 10 -66 0 -53 -4 -66 -31 -100 -71 -89 -191 -109 -259 -43 -58 57 -70 141
-36 268 20 79 18 92 -5 35z"/>
<path d="M1844 2076 c-58 -26 -91 -95 -74 -157 24 -86 128 -126 200 -77 43 29
60 61 60 113 0 51 -28 97 -73 118 -42 20 -71 21 -113 3z"/>
<path d="M2096 2008 c-8 -13 -22 -49 -31 -81 -27 -93 -85 -147 -160 -147 -43
0 -96 21 -124 49 -12 12 -21 17 -21 12 0 -13 53 -63 78 -72 37 -14 111 -10
148 7 49 24 79 64 104 141 12 37 31 75 41 85 24 21 24 28 -1 28 -11 0 -26 -10
-34 -22z"/>
<path d="M3170 1922 c-44 -24 -74 -81 -65 -123 11 -49 74 -105 127 -113 58 -9
150 6 273 44 110 34 162 37 211 14 43 -20 56 -43 59 -106 l3 -48 -214 0 -214
0 0 -25 c0 -25 0 -25 95 -25 52 0 95 -4 95 -9 0 -5 -9 -7 -19 -4 -28 7 -71
-38 -71 -74 0 -46 44 -88 87 -84 17 1 43 54 43 86 0 14 -7 39 -15 55 l-16 30
31 0 30 0 0 -102 c1 -75 5 -108 15 -122 18 -24 17 -29 15 112 l-2 112 26 0
c24 0 26 -3 26 -44 0 -60 42 -116 87 -116 32 0 46 34 41 101 -4 52 -2 59 14
59 16 0 18 -10 18 -104 0 -59 4 -108 10 -111 6 -3 10 -11 10 -16 0 -6 -4 -7
-10 -4 -16 10 -12 -29 5 -51 15 -18 16 -18 14 11 -1 17 -1 85 0 153 1 119 2
122 23 122 25 0 78 -47 78 -69 0 -8 -12 -27 -26 -43 -25 -25 -26 -29 -11 -51
8 -13 34 -29 56 -36 66 -19 108 -63 121 -125 6 -30 8 -66 4 -81 -7 -26 11 -75
28 -75 12 0 10 104 -3 137 -6 15 -11 40 -11 55 0 14 -8 34 -19 44 -15 13 -19
14 -19 3 -1 -11 -3 -10 -10 2 -7 12 -67 58 -98 75 -1 1 11 24 29 52 23 37 30
59 27 82 -4 27 -2 30 24 30 l28 0 0 -102 c1 -96 11 -138 34 -138 4 0 6 8 5 18
-1 9 -1 63 0 120 1 95 2 102 21 102 19 0 20 -7 20 -104 0 -59 4 -108 10 -111
6 -3 10 -11 10 -16 0 -6 -4 -7 -10 -4 -16 10 -12 -29 5 -51 15 -18 16 -18 14
11 -1 17 -1 85 0 153 l1 122 60 0 c53 0 60 -2 60 -19 0 -11 -18 -41 -40 -67
-38 -43 -40 -48 -26 -68 10 -15 23 -20 43 -18 51 4 93 -7 93 -26 0 -10 6 -24
13 -31 10 -11 10 -13 0 -7 -19 11 -16 -39 3 -55 14 -11 16 -9 13 17 -1 16 -1
84 -1 152 l2 122 90 0 c89 0 90 0 90 25 l0 25 -304 0 c-247 0 -306 3 -315 14
-20 24 -51 26 -72 5 -13 -13 -33 -19 -63 -19 -43 0 -44 1 -50 38 -7 48 -53
112 -103 146 -53 36 -119 35 -242 -5 -108 -35 -261 -50 -299 -30 -52 28 -10
127 64 151 53 18 129 8 161 -21 l27 -24 -23 30 c-12 16 -35 38 -49 47 -37 24
-126 24 -172 0z m845 -361 c3 -10 1 -31 -5 -46 l-11 -28 -29 28 c-23 22 -27
32 -19 46 13 25 56 25 64 0z m-225 -53 c0 -42 -20 -82 -43 -86 -23 -5 -31 19
-23 73 7 42 9 45 37 45 26 0 29 -3 29 -32z m610 -43 c0 -41 -2 -75 -4 -75 -1
0 -17 5 -34 11 l-30 10 20 36 c18 30 20 40 11 64 -10 27 -10 29 13 29 23 0 24
-2 24 -75z m-860 2 c0 -20 -30 -57 -45 -57 -17 0 -10 25 13 53 18 20 32 22 32
4z"/>
<path d="M2102 1765 c-59 -84 -155 -106 -267 -60 -72 30 -77 30 -45 4 102 -82
283 -60 335 42 29 54 13 64 -23 14z"/>
<path d="M1895 1577 l-30 -14 37 -7 c95 -18 176 -78 204 -151 36 -95 -1 -239
-82 -318 -95 -93 -271 -170 -434 -189 -83 -10 -107 -9 -163 5 -80 19 -110 38
-150 92 l-30 40 7 -45 c19 -128 32 -135 256 -135 183 0 258 17 404 93 109 56
168 112 218 207 97 186 90 321 -18 396 -43 29 -58 34 -119 36 -43 2 -82 -2
-100 -10z"/>
<path d="M382 1523 c-12 -27 -17 -64 -17 -134 0 -92 1 -98 42 -180 68 -136
186 -260 348 -365 140 -90 244 -134 322 -134 85 0 123 73 123 236 0 48 -4 73
-10 69 -5 -3 -10 -21 -10 -39 0 -48 -27 -130 -49 -150 -50 -45 -167 -38 -278
16 -167 82 -344 293 -383 457 -15 62 -8 143 15 178 9 14 15 26 13 27 -2 1 -18
9 -36 16 -19 7 -40 20 -48 27 -12 13 -17 10 -32 -24z"/>
<path d="M671 1516 c-22 -12 -53 -20 -83 -20 l-48 0 -15 -50 c-56 -187 41
-377 266 -522 151 -98 265 -110 327 -34 20 25 42 81 42 109 0 62 -7 68 -78 74
-93 9 -158 44 -232 124 -73 81 -106 145 -128 255 l-17 84 -34 -20z"/>
<path d="M1835 1512 c-27 -7 -30 -12 -37 -59 -21 -141 -93 -240 -226 -307 -73
-37 -197 -76 -242 -76 -14 0 -31 -4 -38 -9 -22 -13 39 -75 100 -102 131 -58
361 -8 524 113 105 78 176 214 160 303 -8 39 -55 99 -95 120 -33 17 -107 25
-146 17z"/>
<path d="M754 1435 c13 -58 75 -171 122 -217 85 -86 181 -118 355 -118 179 0
316 45 418 136 53 48 111 149 111 193 -1 22 -5 19 -27 -23 -36 -70 -121 -151
-194 -185 -83 -40 -180 -55 -314 -48 -124 5 -221 34 -310 92 -61 40 -83 63
-130 140 -29 46 -36 53 -31 30z"/>
<path d="M3610 1294 c1 -19 22 -54 33 -54 13 0 2 42 -15 57 -17 15 -18 15 -18
-3z"/>
<path d="M1234 827 c-1 -40 -27 -110 -55 -148 -10 -13 -7 -22 12 -48 50 -68
130 -82 180 -32 58 59 29 160 -69 234 -27 20 -53 37 -58 37 -5 0 -10 -19 -10
-43z"/>
<path d="M1454 796 l-51 -11 18 -40 c10 -22 19 -48 19 -57 0 -42 60 2 94 69
29 57 21 61 -80 39z"/>
<path d="M3500 670 c0 -19 7 -20 125 -20 69 0 125 -4 125 -9 0 -4 -27 -8 -61
-7 -56 1 -63 -1 -90 -32 -37 -41 -38 -80 -3 -121 29 -35 54 -39 77 -13 20 22
22 83 5 100 -10 10 -10 15 2 22 19 12 57 13 64 1 3 -4 6 -54 7 -110 2 -83 5
-107 20 -124 16 -19 18 -20 19 -4 0 10 -8 30 -17 45 -17 26 -17 26 0 13 16
-13 17 -6 17 113 l0 126 121 -1 c96 0 121 -3 126 -15 8 -23 1 -24 -42 -10 -22
8 -46 10 -54 6 -9 -5 -31 -14 -49 -21 -63 -23 -80 -98 -36 -162 68 -100 154
-49 142 84 -5 46 -4 49 18 49 23 0 24 -3 23 -69 -1 -41 4 -78 12 -92 12 -21
14 -10 17 104 l3 127 44 0 c38 0 45 3 45 20 0 20 -7 20 -330 20 -323 0 -330 0
-330 -20z m160 -109 c0 -23 -38 -73 -50 -66 -5 3 -5 17 1 33 19 49 49 70 49
33z m302 -32 c-4 -59 -25 -89 -61 -89 -36 0 -45 22 -30 67 11 34 63 77 84 69
6 -2 9 -23 7 -47z"/>
<path d="M4126 594 c-7 -19 8 -48 35 -68 47 -32 69 22 26 62 -27 26 -52 28
-61 6z"/>
<path d="M4126 494 c-11 -30 41 -91 69 -81 21 9 19 40 -6 71 -23 29 -54 34
-63 10z"/>
<path d="M4030 405 c0 -4 8 -20 17 -38 16 -30 18 -31 21 -9 2 13 -2 30 -8 38
-12 14 -30 19 -30 9z"/>
</g>
</svg>
